G04 #@! TF.GenerationSoftware,KiCad,Pcbnew,(5.1.10)-1*
G04 #@! TF.CreationDate,2021-10-03T11:45:08+02:00*
G04 #@! TF.ProjectId,PPK2-USB_C-Adapter_v1.0,50504b32-2d55-4534-925f-432d41646170,1.0*
G04 #@! TF.SameCoordinates,Original*
G04 #@! TF.FileFunction,Copper,L2,Bot*
G04 #@! TF.FilePolarity,Positive*
%FSLAX46Y46*%
G04 Gerber Fmt 4.6, Leading zero omitted, Abs format (unit mm)*
G04 Created by KiCad (PCBNEW (5.1.10)-1) date 2021-10-03 11:45:08*
%MOMM*%
%LPD*%
G01*
G04 APERTURE LIST*
G04 #@! TA.AperFunction,ComponentPad*
%ADD10C,1.700000*%
G04 #@! TD*
G04 #@! TA.AperFunction,ComponentPad*
%ADD11O,1.700000X1.700000*%
G04 #@! TD*
G04 #@! TA.AperFunction,ComponentPad*
%ADD12O,1.700000X0.900000*%
G04 #@! TD*
G04 #@! TA.AperFunction,ComponentPad*
%ADD13O,2.000000X0.900000*%
G04 #@! TD*
G04 #@! TA.AperFunction,ViaPad*
%ADD14C,0.800000*%
G04 #@! TD*
G04 #@! TA.AperFunction,ViaPad*
%ADD15C,0.600000*%
G04 #@! TD*
G04 #@! TA.AperFunction,Conductor*
%ADD16C,0.400000*%
G04 #@! TD*
G04 #@! TA.AperFunction,Conductor*
%ADD17C,0.250000*%
G04 #@! TD*
G04 #@! TA.AperFunction,Conductor*
%ADD18C,0.254000*%
G04 #@! TD*
G04 #@! TA.AperFunction,Conductor*
%ADD19C,0.100000*%
G04 #@! TD*
G04 APERTURE END LIST*
D10*
X119062500Y-82423000D03*
D11*
X121602500Y-82423000D03*
X124142500Y-82423000D03*
X126682500Y-82423000D03*
D12*
X137426420Y-86251320D03*
X137426420Y-94891320D03*
D13*
X133256420Y-86251320D03*
X133256420Y-94891320D03*
X112186320Y-86251320D03*
X112186320Y-94891320D03*
D12*
X108016320Y-86251320D03*
X108016320Y-94891320D03*
D14*
X129032000Y-88646000D03*
X130048000Y-91313000D03*
X114187940Y-88171320D03*
X114170460Y-93304360D03*
X120134380Y-88343740D03*
D15*
X127921320Y-89821320D03*
X118567020Y-93141620D03*
D14*
X131398980Y-92971320D03*
D16*
X119961960Y-88171320D02*
X120134380Y-88343740D01*
X114187940Y-88171320D02*
X119961960Y-88171320D01*
X114170460Y-88188800D02*
X114187940Y-88171320D01*
X114170460Y-93304360D02*
X114170460Y-88188800D01*
D17*
X124601020Y-93141620D02*
X127921320Y-89821320D01*
X118567020Y-93141620D02*
X124601020Y-93141620D01*
D16*
X131398980Y-92971320D02*
X131398980Y-87685580D01*
X131398980Y-87685580D02*
X130395980Y-86682580D01*
X130395980Y-86682580D02*
X126095760Y-86682580D01*
X124142500Y-84729320D02*
X124142500Y-82423000D01*
X126095760Y-86682580D02*
X124142500Y-84729320D01*
D18*
X110973000Y-82911059D02*
X110971036Y-82931000D01*
X110978875Y-83010590D01*
X111002090Y-83087121D01*
X111039790Y-83157653D01*
X111069749Y-83194157D01*
X111090526Y-83219474D01*
X111152347Y-83270210D01*
X111222879Y-83307910D01*
X111299410Y-83331125D01*
X111379000Y-83338964D01*
X111398940Y-83337000D01*
X113772060Y-83337000D01*
X113792000Y-83338964D01*
X113871590Y-83331125D01*
X113948121Y-83307910D01*
X114018653Y-83270210D01*
X114080474Y-83219474D01*
X114131210Y-83157653D01*
X114168910Y-83087121D01*
X114192125Y-83010590D01*
X114198000Y-82950941D01*
X114198000Y-82950940D01*
X114199964Y-82931000D01*
X114198000Y-82911059D01*
X114198000Y-82491531D01*
X117571889Y-82491531D01*
X117613901Y-82781019D01*
X117711581Y-83056747D01*
X117785028Y-83194157D01*
X118034103Y-83271792D01*
X118882895Y-82423000D01*
X119242105Y-82423000D01*
X120090897Y-83271792D01*
X120339972Y-83194157D01*
X120465871Y-82930117D01*
X120471289Y-82908772D01*
X120511602Y-83006097D01*
X120646320Y-83207717D01*
X120817783Y-83379180D01*
X121019403Y-83513898D01*
X121243431Y-83606693D01*
X121481257Y-83654000D01*
X121723743Y-83654000D01*
X121961569Y-83606693D01*
X122185597Y-83513898D01*
X122387217Y-83379180D01*
X122558680Y-83207717D01*
X122693398Y-83006097D01*
X122786193Y-82782069D01*
X122833500Y-82544243D01*
X122833500Y-82301757D01*
X122786193Y-82063931D01*
X122693398Y-81839903D01*
X122558680Y-81638283D01*
X122387217Y-81466820D01*
X122185597Y-81332102D01*
X121961569Y-81239307D01*
X121723743Y-81192000D01*
X121481257Y-81192000D01*
X121243431Y-81239307D01*
X121019403Y-81332102D01*
X120817783Y-81466820D01*
X120646320Y-81638283D01*
X120511602Y-81839903D01*
X120468352Y-81944317D01*
X120413419Y-81789253D01*
X120339972Y-81651843D01*
X120090897Y-81574208D01*
X119242105Y-82423000D01*
X118882895Y-82423000D01*
X118034103Y-81574208D01*
X117785028Y-81651843D01*
X117659129Y-81915883D01*
X117587161Y-82199411D01*
X117571889Y-82491531D01*
X114198000Y-82491531D01*
X114198000Y-81051000D01*
X118488260Y-81051000D01*
X118428753Y-81072081D01*
X118291343Y-81145528D01*
X118213708Y-81394603D01*
X119062500Y-82243395D01*
X119911292Y-81394603D01*
X119833657Y-81145528D01*
X119635409Y-81051000D01*
X126126281Y-81051000D01*
X125915580Y-81151359D01*
X125682231Y-81325412D01*
X125487322Y-81541645D01*
X125338343Y-81791748D01*
X125280728Y-81954168D01*
X125233398Y-81839903D01*
X125098680Y-81638283D01*
X124927217Y-81466820D01*
X124725597Y-81332102D01*
X124501569Y-81239307D01*
X124263743Y-81192000D01*
X124021257Y-81192000D01*
X123783431Y-81239307D01*
X123559403Y-81332102D01*
X123357783Y-81466820D01*
X123186320Y-81638283D01*
X123051602Y-81839903D01*
X122958807Y-82063931D01*
X122911500Y-82301757D01*
X122911500Y-82544243D01*
X122958807Y-82782069D01*
X123051602Y-83006097D01*
X123186320Y-83207717D01*
X123357783Y-83379180D01*
X123559403Y-83513898D01*
X123561501Y-83514767D01*
X123561500Y-84700780D01*
X123558689Y-84729320D01*
X123561500Y-84757859D01*
X123569907Y-84843215D01*
X123603129Y-84952734D01*
X123657079Y-85053667D01*
X123729683Y-85142137D01*
X123751860Y-85160337D01*
X125664752Y-87073231D01*
X125682943Y-87095397D01*
X125705109Y-87113588D01*
X125705111Y-87113590D01*
X125771412Y-87168001D01*
X125872345Y-87221951D01*
X125981864Y-87255173D01*
X126095760Y-87266391D01*
X126124300Y-87263580D01*
X130155323Y-87263580D01*
X130817981Y-87926239D01*
X130817980Y-92447819D01*
X130792338Y-92473461D01*
X130706867Y-92601378D01*
X130647993Y-92743511D01*
X130617980Y-92894398D01*
X130617980Y-93048242D01*
X130647993Y-93199129D01*
X130706867Y-93341262D01*
X130792338Y-93469179D01*
X130901121Y-93577962D01*
X131029038Y-93663433D01*
X131171171Y-93722307D01*
X131322058Y-93752320D01*
X131475902Y-93752320D01*
X131626789Y-93722307D01*
X131768922Y-93663433D01*
X131896839Y-93577962D01*
X132005622Y-93469179D01*
X132091093Y-93341262D01*
X132149967Y-93199129D01*
X132179980Y-93048242D01*
X132179980Y-92894398D01*
X132149967Y-92743511D01*
X132091093Y-92601378D01*
X132005622Y-92473461D01*
X131979980Y-92447819D01*
X131979980Y-87714119D01*
X131982791Y-87685579D01*
X131971573Y-87571684D01*
X131938351Y-87462165D01*
X131915991Y-87420333D01*
X131884401Y-87361232D01*
X131811797Y-87272763D01*
X131789625Y-87254567D01*
X130826997Y-86291940D01*
X130808797Y-86269763D01*
X130786324Y-86251320D01*
X131871400Y-86251320D01*
X131887445Y-86414224D01*
X131934962Y-86570868D01*
X132012126Y-86715232D01*
X132115972Y-86841768D01*
X132242508Y-86945614D01*
X132386872Y-87022778D01*
X132543516Y-87070295D01*
X132665605Y-87082320D01*
X133407120Y-87082320D01*
X133302308Y-87152353D01*
X133207453Y-87247208D01*
X133132926Y-87358746D01*
X133081591Y-87482680D01*
X133055420Y-87614247D01*
X133055420Y-87748393D01*
X133081591Y-87879960D01*
X133132926Y-88003894D01*
X133207453Y-88115432D01*
X133302308Y-88210287D01*
X133413846Y-88284814D01*
X133537780Y-88336149D01*
X133669347Y-88362320D01*
X133803493Y-88362320D01*
X133935060Y-88336149D01*
X134058994Y-88284814D01*
X134170532Y-88210287D01*
X134265387Y-88115432D01*
X134339914Y-88003894D01*
X134391249Y-87879960D01*
X134417420Y-87748393D01*
X134417420Y-87614247D01*
X134391249Y-87482680D01*
X134339914Y-87358746D01*
X134265387Y-87247208D01*
X134170532Y-87152353D01*
X134058994Y-87077826D01*
X134010591Y-87057777D01*
X134125968Y-87022778D01*
X134270332Y-86945614D01*
X134396868Y-86841768D01*
X134500714Y-86715232D01*
X134577878Y-86570868D01*
X134625395Y-86414224D01*
X134641440Y-86251320D01*
X136191400Y-86251320D01*
X136207445Y-86414224D01*
X136254962Y-86570868D01*
X136332126Y-86715232D01*
X136435972Y-86841768D01*
X136562508Y-86945614D01*
X136706872Y-87022778D01*
X136863516Y-87070295D01*
X136985605Y-87082320D01*
X137867235Y-87082320D01*
X137989324Y-87070295D01*
X138145968Y-87022778D01*
X138290332Y-86945614D01*
X138416868Y-86841768D01*
X138520714Y-86715232D01*
X138597878Y-86570868D01*
X138645395Y-86414224D01*
X138661440Y-86251320D01*
X138645395Y-86088416D01*
X138597878Y-85931772D01*
X138520714Y-85787408D01*
X138416868Y-85660872D01*
X138290332Y-85557026D01*
X138145968Y-85479862D01*
X137989324Y-85432345D01*
X137867235Y-85420320D01*
X136985605Y-85420320D01*
X136863516Y-85432345D01*
X136706872Y-85479862D01*
X136562508Y-85557026D01*
X136435972Y-85660872D01*
X136332126Y-85787408D01*
X136254962Y-85931772D01*
X136207445Y-86088416D01*
X136191400Y-86251320D01*
X134641440Y-86251320D01*
X134625395Y-86088416D01*
X134577878Y-85931772D01*
X134500714Y-85787408D01*
X134396868Y-85660872D01*
X134270332Y-85557026D01*
X134125968Y-85479862D01*
X133969324Y-85432345D01*
X133847235Y-85420320D01*
X132665605Y-85420320D01*
X132543516Y-85432345D01*
X132386872Y-85479862D01*
X132242508Y-85557026D01*
X132115972Y-85660872D01*
X132012126Y-85787408D01*
X131934962Y-85931772D01*
X131887445Y-86088416D01*
X131871400Y-86251320D01*
X130786324Y-86251320D01*
X130720328Y-86197159D01*
X130619395Y-86143209D01*
X130509876Y-86109987D01*
X130424520Y-86101580D01*
X130395980Y-86098769D01*
X130367440Y-86101580D01*
X126336419Y-86101580D01*
X124723500Y-84488663D01*
X124723500Y-83514767D01*
X124725597Y-83513898D01*
X124927217Y-83379180D01*
X125098680Y-83207717D01*
X125233398Y-83006097D01*
X125280728Y-82891832D01*
X125338343Y-83054252D01*
X125487322Y-83304355D01*
X125682231Y-83520588D01*
X125915580Y-83694641D01*
X126178401Y-83819825D01*
X126325610Y-83864476D01*
X126555500Y-83743155D01*
X126555500Y-82550000D01*
X126809500Y-82550000D01*
X126809500Y-83743155D01*
X127039390Y-83864476D01*
X127186599Y-83819825D01*
X127449420Y-83694641D01*
X127682769Y-83520588D01*
X127877678Y-83304355D01*
X128026657Y-83054252D01*
X128123981Y-82779891D01*
X128003314Y-82550000D01*
X126809500Y-82550000D01*
X126555500Y-82550000D01*
X126535500Y-82550000D01*
X126535500Y-82296000D01*
X126555500Y-82296000D01*
X126555500Y-82276000D01*
X126809500Y-82276000D01*
X126809500Y-82296000D01*
X128003314Y-82296000D01*
X128123981Y-82066109D01*
X128026657Y-81791748D01*
X127877678Y-81541645D01*
X127682769Y-81325412D01*
X127449420Y-81151359D01*
X127238719Y-81051000D01*
X131166001Y-81051000D01*
X131166000Y-82911059D01*
X131164036Y-82931000D01*
X131171875Y-83010590D01*
X131195090Y-83087121D01*
X131232790Y-83157653D01*
X131262749Y-83194157D01*
X131283526Y-83219474D01*
X131345347Y-83270210D01*
X131415879Y-83307910D01*
X131492410Y-83331125D01*
X131572000Y-83338964D01*
X131591940Y-83337000D01*
X133965060Y-83337000D01*
X133985000Y-83338964D01*
X134064590Y-83331125D01*
X134141121Y-83307910D01*
X134211653Y-83270210D01*
X134273474Y-83219474D01*
X134324210Y-83157653D01*
X134361910Y-83087121D01*
X134385125Y-83010590D01*
X134391000Y-82950941D01*
X134391000Y-82950940D01*
X134392964Y-82931000D01*
X134391000Y-82911059D01*
X134391000Y-81051000D01*
X137590262Y-81051000D01*
X137657119Y-81079655D01*
X137744170Y-81098159D01*
X137750502Y-81098824D01*
X138051354Y-81128323D01*
X138297943Y-81202772D01*
X138525373Y-81323699D01*
X138724987Y-81486500D01*
X138889173Y-81684968D01*
X139011687Y-81911549D01*
X139087857Y-82157615D01*
X139119455Y-82458252D01*
X139121369Y-82467578D01*
X139125994Y-82513120D01*
X139152011Y-82598227D01*
X139167001Y-82626185D01*
X139167000Y-95807262D01*
X139138345Y-95874119D01*
X139119841Y-95961170D01*
X139119176Y-95967502D01*
X139089677Y-96268354D01*
X139015228Y-96514943D01*
X138894301Y-96742373D01*
X138731500Y-96941987D01*
X138533033Y-97106173D01*
X138306446Y-97228689D01*
X138060385Y-97304857D01*
X137759748Y-97336455D01*
X137750422Y-97338369D01*
X137704880Y-97342994D01*
X137619773Y-97369011D01*
X137591817Y-97384000D01*
X124485000Y-97384000D01*
X124485000Y-95523941D01*
X124486964Y-95504000D01*
X124479125Y-95424410D01*
X124455910Y-95347879D01*
X124418210Y-95277347D01*
X124367474Y-95215526D01*
X124305653Y-95164790D01*
X124235121Y-95127090D01*
X124158590Y-95103875D01*
X124098941Y-95098000D01*
X124098940Y-95098000D01*
X124079000Y-95096036D01*
X124059059Y-95098000D01*
X121685941Y-95098000D01*
X121666000Y-95096036D01*
X121646060Y-95098000D01*
X121646059Y-95098000D01*
X121586410Y-95103875D01*
X121509879Y-95127090D01*
X121439347Y-95164790D01*
X121377526Y-95215526D01*
X121326790Y-95277347D01*
X121289090Y-95347879D01*
X121265875Y-95424410D01*
X121258036Y-95504000D01*
X121260001Y-95523951D01*
X121260000Y-97384000D01*
X107900738Y-97384000D01*
X107833881Y-97355345D01*
X107746830Y-97336841D01*
X107740498Y-97336176D01*
X107439646Y-97306677D01*
X107193057Y-97232228D01*
X106965627Y-97111301D01*
X106766013Y-96948500D01*
X106601827Y-96750033D01*
X106479311Y-96523446D01*
X106403143Y-96277385D01*
X106371545Y-95976748D01*
X106369631Y-95967422D01*
X106365006Y-95921880D01*
X106338989Y-95836773D01*
X106324000Y-95808817D01*
X106324000Y-94891320D01*
X106781300Y-94891320D01*
X106797345Y-95054224D01*
X106844862Y-95210868D01*
X106922026Y-95355232D01*
X107025872Y-95481768D01*
X107152408Y-95585614D01*
X107296772Y-95662778D01*
X107453416Y-95710295D01*
X107575505Y-95722320D01*
X108457135Y-95722320D01*
X108579224Y-95710295D01*
X108735868Y-95662778D01*
X108880232Y-95585614D01*
X109006768Y-95481768D01*
X109110614Y-95355232D01*
X109187778Y-95210868D01*
X109235295Y-95054224D01*
X109251340Y-94891320D01*
X110801300Y-94891320D01*
X110817345Y-95054224D01*
X110864862Y-95210868D01*
X110942026Y-95355232D01*
X111045872Y-95481768D01*
X111172408Y-95585614D01*
X111316772Y-95662778D01*
X111473416Y-95710295D01*
X111595505Y-95722320D01*
X112777135Y-95722320D01*
X112899224Y-95710295D01*
X113055868Y-95662778D01*
X113200232Y-95585614D01*
X113326768Y-95481768D01*
X113430614Y-95355232D01*
X113507778Y-95210868D01*
X113555295Y-95054224D01*
X113571340Y-94891320D01*
X131871400Y-94891320D01*
X131887445Y-95054224D01*
X131934962Y-95210868D01*
X132012126Y-95355232D01*
X132115972Y-95481768D01*
X132242508Y-95585614D01*
X132386872Y-95662778D01*
X132543516Y-95710295D01*
X132665605Y-95722320D01*
X133847235Y-95722320D01*
X133969324Y-95710295D01*
X134125968Y-95662778D01*
X134270332Y-95585614D01*
X134396868Y-95481768D01*
X134500714Y-95355232D01*
X134577878Y-95210868D01*
X134625395Y-95054224D01*
X134641440Y-94891320D01*
X136191400Y-94891320D01*
X136207445Y-95054224D01*
X136254962Y-95210868D01*
X136332126Y-95355232D01*
X136435972Y-95481768D01*
X136562508Y-95585614D01*
X136706872Y-95662778D01*
X136863516Y-95710295D01*
X136985605Y-95722320D01*
X137867235Y-95722320D01*
X137989324Y-95710295D01*
X138145968Y-95662778D01*
X138290332Y-95585614D01*
X138416868Y-95481768D01*
X138520714Y-95355232D01*
X138597878Y-95210868D01*
X138645395Y-95054224D01*
X138661440Y-94891320D01*
X138645395Y-94728416D01*
X138597878Y-94571772D01*
X138520714Y-94427408D01*
X138416868Y-94300872D01*
X138290332Y-94197026D01*
X138145968Y-94119862D01*
X137989324Y-94072345D01*
X137867235Y-94060320D01*
X136985605Y-94060320D01*
X136863516Y-94072345D01*
X136706872Y-94119862D01*
X136562508Y-94197026D01*
X136435972Y-94300872D01*
X136332126Y-94427408D01*
X136254962Y-94571772D01*
X136207445Y-94728416D01*
X136191400Y-94891320D01*
X134641440Y-94891320D01*
X134625395Y-94728416D01*
X134577878Y-94571772D01*
X134500714Y-94427408D01*
X134396868Y-94300872D01*
X134270332Y-94197026D01*
X134125968Y-94119862D01*
X134010591Y-94084863D01*
X134058994Y-94064814D01*
X134170532Y-93990287D01*
X134265387Y-93895432D01*
X134339914Y-93783894D01*
X134391249Y-93659960D01*
X134417420Y-93528393D01*
X134417420Y-93394247D01*
X134391249Y-93262680D01*
X134339914Y-93138746D01*
X134265387Y-93027208D01*
X134170532Y-92932353D01*
X134058994Y-92857826D01*
X133935060Y-92806491D01*
X133803493Y-92780320D01*
X133669347Y-92780320D01*
X133537780Y-92806491D01*
X133413846Y-92857826D01*
X133302308Y-92932353D01*
X133207453Y-93027208D01*
X133132926Y-93138746D01*
X133081591Y-93262680D01*
X133055420Y-93394247D01*
X133055420Y-93528393D01*
X133081591Y-93659960D01*
X133132926Y-93783894D01*
X133207453Y-93895432D01*
X133302308Y-93990287D01*
X133407120Y-94060320D01*
X132665605Y-94060320D01*
X132543516Y-94072345D01*
X132386872Y-94119862D01*
X132242508Y-94197026D01*
X132115972Y-94300872D01*
X132012126Y-94427408D01*
X131934962Y-94571772D01*
X131887445Y-94728416D01*
X131871400Y-94891320D01*
X113571340Y-94891320D01*
X113555295Y-94728416D01*
X113507778Y-94571772D01*
X113430614Y-94427408D01*
X113326768Y-94300872D01*
X113200232Y-94197026D01*
X113055868Y-94119862D01*
X112899224Y-94072345D01*
X112777135Y-94060320D01*
X112035620Y-94060320D01*
X112140432Y-93990287D01*
X112235287Y-93895432D01*
X112309814Y-93783894D01*
X112361149Y-93659960D01*
X112387320Y-93528393D01*
X112387320Y-93394247D01*
X112361149Y-93262680D01*
X112346552Y-93227438D01*
X113389460Y-93227438D01*
X113389460Y-93381282D01*
X113419473Y-93532169D01*
X113478347Y-93674302D01*
X113563818Y-93802219D01*
X113672601Y-93911002D01*
X113800518Y-93996473D01*
X113942651Y-94055347D01*
X114093538Y-94085360D01*
X114247382Y-94085360D01*
X114398269Y-94055347D01*
X114540402Y-93996473D01*
X114668319Y-93911002D01*
X114777102Y-93802219D01*
X114862573Y-93674302D01*
X114921447Y-93532169D01*
X114951460Y-93381282D01*
X114951460Y-93227438D01*
X114921447Y-93076551D01*
X114920617Y-93074547D01*
X117886020Y-93074547D01*
X117886020Y-93208693D01*
X117912191Y-93340260D01*
X117963526Y-93464194D01*
X118038053Y-93575732D01*
X118132908Y-93670587D01*
X118244446Y-93745114D01*
X118368380Y-93796449D01*
X118499947Y-93822620D01*
X118634093Y-93822620D01*
X118765660Y-93796449D01*
X118889594Y-93745114D01*
X119001132Y-93670587D01*
X119024099Y-93647620D01*
X124576174Y-93647620D01*
X124601020Y-93650067D01*
X124625866Y-93647620D01*
X124625874Y-93647620D01*
X124700213Y-93640298D01*
X124795595Y-93611365D01*
X124883499Y-93564379D01*
X124960547Y-93501147D01*
X124976396Y-93481835D01*
X127955912Y-90502320D01*
X127988393Y-90502320D01*
X128119960Y-90476149D01*
X128243894Y-90424814D01*
X128355432Y-90350287D01*
X128450287Y-90255432D01*
X128524814Y-90143894D01*
X128576149Y-90019960D01*
X128602320Y-89888393D01*
X128602320Y-89754247D01*
X128576149Y-89622680D01*
X128524814Y-89498746D01*
X128450287Y-89387208D01*
X128355432Y-89292353D01*
X128243894Y-89217826D01*
X128119960Y-89166491D01*
X127988393Y-89140320D01*
X127854247Y-89140320D01*
X127722680Y-89166491D01*
X127598746Y-89217826D01*
X127487208Y-89292353D01*
X127392353Y-89387208D01*
X127317826Y-89498746D01*
X127266491Y-89622680D01*
X127240320Y-89754247D01*
X127240320Y-89786728D01*
X124391429Y-92635620D01*
X119024099Y-92635620D01*
X119001132Y-92612653D01*
X118889594Y-92538126D01*
X118765660Y-92486791D01*
X118634093Y-92460620D01*
X118499947Y-92460620D01*
X118368380Y-92486791D01*
X118244446Y-92538126D01*
X118132908Y-92612653D01*
X118038053Y-92707508D01*
X117963526Y-92819046D01*
X117912191Y-92942980D01*
X117886020Y-93074547D01*
X114920617Y-93074547D01*
X114862573Y-92934418D01*
X114777102Y-92806501D01*
X114751460Y-92780859D01*
X114751460Y-88752320D01*
X119468084Y-88752320D01*
X119527738Y-88841599D01*
X119636521Y-88950382D01*
X119764438Y-89035853D01*
X119906571Y-89094727D01*
X120057458Y-89124740D01*
X120211302Y-89124740D01*
X120362189Y-89094727D01*
X120504322Y-89035853D01*
X120632239Y-88950382D01*
X120741022Y-88841599D01*
X120826493Y-88713682D01*
X120885367Y-88571549D01*
X120915380Y-88420662D01*
X120915380Y-88266818D01*
X120885367Y-88115931D01*
X120826493Y-87973798D01*
X120741022Y-87845881D01*
X120632239Y-87737098D01*
X120504322Y-87651627D01*
X120362189Y-87592753D01*
X120211302Y-87562740D01*
X120057458Y-87562740D01*
X119918803Y-87590320D01*
X114711441Y-87590320D01*
X114685799Y-87564678D01*
X114557882Y-87479207D01*
X114415749Y-87420333D01*
X114264862Y-87390320D01*
X114111018Y-87390320D01*
X113960131Y-87420333D01*
X113817998Y-87479207D01*
X113690081Y-87564678D01*
X113581298Y-87673461D01*
X113495827Y-87801378D01*
X113436953Y-87943511D01*
X113406940Y-88094398D01*
X113406940Y-88248242D01*
X113436953Y-88399129D01*
X113495827Y-88541262D01*
X113581298Y-88669179D01*
X113589461Y-88677342D01*
X113589460Y-92780859D01*
X113563818Y-92806501D01*
X113478347Y-92934418D01*
X113419473Y-93076551D01*
X113389460Y-93227438D01*
X112346552Y-93227438D01*
X112309814Y-93138746D01*
X112235287Y-93027208D01*
X112140432Y-92932353D01*
X112028894Y-92857826D01*
X111904960Y-92806491D01*
X111773393Y-92780320D01*
X111639247Y-92780320D01*
X111507680Y-92806491D01*
X111383746Y-92857826D01*
X111272208Y-92932353D01*
X111177353Y-93027208D01*
X111102826Y-93138746D01*
X111051491Y-93262680D01*
X111025320Y-93394247D01*
X111025320Y-93528393D01*
X111051491Y-93659960D01*
X111102826Y-93783894D01*
X111177353Y-93895432D01*
X111272208Y-93990287D01*
X111383746Y-94064814D01*
X111432149Y-94084863D01*
X111316772Y-94119862D01*
X111172408Y-94197026D01*
X111045872Y-94300872D01*
X110942026Y-94427408D01*
X110864862Y-94571772D01*
X110817345Y-94728416D01*
X110801300Y-94891320D01*
X109251340Y-94891320D01*
X109235295Y-94728416D01*
X109187778Y-94571772D01*
X109110614Y-94427408D01*
X109006768Y-94300872D01*
X108880232Y-94197026D01*
X108735868Y-94119862D01*
X108579224Y-94072345D01*
X108457135Y-94060320D01*
X107575505Y-94060320D01*
X107453416Y-94072345D01*
X107296772Y-94119862D01*
X107152408Y-94197026D01*
X107025872Y-94300872D01*
X106922026Y-94427408D01*
X106844862Y-94571772D01*
X106797345Y-94728416D01*
X106781300Y-94891320D01*
X106324000Y-94891320D01*
X106324000Y-86251320D01*
X106781300Y-86251320D01*
X106797345Y-86414224D01*
X106844862Y-86570868D01*
X106922026Y-86715232D01*
X107025872Y-86841768D01*
X107152408Y-86945614D01*
X107296772Y-87022778D01*
X107453416Y-87070295D01*
X107575505Y-87082320D01*
X108457135Y-87082320D01*
X108579224Y-87070295D01*
X108735868Y-87022778D01*
X108880232Y-86945614D01*
X109006768Y-86841768D01*
X109110614Y-86715232D01*
X109187778Y-86570868D01*
X109235295Y-86414224D01*
X109251340Y-86251320D01*
X110801300Y-86251320D01*
X110817345Y-86414224D01*
X110864862Y-86570868D01*
X110942026Y-86715232D01*
X111045872Y-86841768D01*
X111172408Y-86945614D01*
X111316772Y-87022778D01*
X111432149Y-87057777D01*
X111383746Y-87077826D01*
X111272208Y-87152353D01*
X111177353Y-87247208D01*
X111102826Y-87358746D01*
X111051491Y-87482680D01*
X111025320Y-87614247D01*
X111025320Y-87748393D01*
X111051491Y-87879960D01*
X111102826Y-88003894D01*
X111177353Y-88115432D01*
X111272208Y-88210287D01*
X111383746Y-88284814D01*
X111507680Y-88336149D01*
X111639247Y-88362320D01*
X111773393Y-88362320D01*
X111904960Y-88336149D01*
X112028894Y-88284814D01*
X112140432Y-88210287D01*
X112235287Y-88115432D01*
X112309814Y-88003894D01*
X112361149Y-87879960D01*
X112387320Y-87748393D01*
X112387320Y-87614247D01*
X112361149Y-87482680D01*
X112309814Y-87358746D01*
X112235287Y-87247208D01*
X112140432Y-87152353D01*
X112035620Y-87082320D01*
X112777135Y-87082320D01*
X112899224Y-87070295D01*
X113055868Y-87022778D01*
X113200232Y-86945614D01*
X113326768Y-86841768D01*
X113430614Y-86715232D01*
X113507778Y-86570868D01*
X113555295Y-86414224D01*
X113571340Y-86251320D01*
X113555295Y-86088416D01*
X113507778Y-85931772D01*
X113430614Y-85787408D01*
X113326768Y-85660872D01*
X113200232Y-85557026D01*
X113055868Y-85479862D01*
X112899224Y-85432345D01*
X112777135Y-85420320D01*
X111595505Y-85420320D01*
X111473416Y-85432345D01*
X111316772Y-85479862D01*
X111172408Y-85557026D01*
X111045872Y-85660872D01*
X110942026Y-85787408D01*
X110864862Y-85931772D01*
X110817345Y-86088416D01*
X110801300Y-86251320D01*
X109251340Y-86251320D01*
X109235295Y-86088416D01*
X109187778Y-85931772D01*
X109110614Y-85787408D01*
X109006768Y-85660872D01*
X108880232Y-85557026D01*
X108735868Y-85479862D01*
X108579224Y-85432345D01*
X108457135Y-85420320D01*
X107575505Y-85420320D01*
X107453416Y-85432345D01*
X107296772Y-85479862D01*
X107152408Y-85557026D01*
X107025872Y-85660872D01*
X106922026Y-85787408D01*
X106844862Y-85931772D01*
X106797345Y-86088416D01*
X106781300Y-86251320D01*
X106324000Y-86251320D01*
X106324000Y-83451397D01*
X118213708Y-83451397D01*
X118291343Y-83700472D01*
X118555383Y-83826371D01*
X118838911Y-83898339D01*
X119131031Y-83913611D01*
X119420519Y-83871599D01*
X119696247Y-83773919D01*
X119833657Y-83700472D01*
X119911292Y-83451397D01*
X119062500Y-82602605D01*
X118213708Y-83451397D01*
X106324000Y-83451397D01*
X106324000Y-82627738D01*
X106352655Y-82560881D01*
X106371159Y-82473830D01*
X106371824Y-82467498D01*
X106401323Y-82166646D01*
X106475772Y-81920057D01*
X106596699Y-81692627D01*
X106759500Y-81493013D01*
X106957968Y-81328827D01*
X107184549Y-81206313D01*
X107430615Y-81130143D01*
X107731252Y-81098545D01*
X107740578Y-81096631D01*
X107786120Y-81092006D01*
X107871227Y-81065989D01*
X107899183Y-81051000D01*
X110973001Y-81051000D01*
X110973000Y-82911059D01*
G04 #@! TA.AperFunction,Conductor*
D19*
G36*
X110973000Y-82911059D02*
G01*
X110971036Y-82931000D01*
X110978875Y-83010590D01*
X111002090Y-83087121D01*
X111039790Y-83157653D01*
X111069749Y-83194157D01*
X111090526Y-83219474D01*
X111152347Y-83270210D01*
X111222879Y-83307910D01*
X111299410Y-83331125D01*
X111379000Y-83338964D01*
X111398940Y-83337000D01*
X113772060Y-83337000D01*
X113792000Y-83338964D01*
X113871590Y-83331125D01*
X113948121Y-83307910D01*
X114018653Y-83270210D01*
X114080474Y-83219474D01*
X114131210Y-83157653D01*
X114168910Y-83087121D01*
X114192125Y-83010590D01*
X114198000Y-82950941D01*
X114198000Y-82950940D01*
X114199964Y-82931000D01*
X114198000Y-82911059D01*
X114198000Y-82491531D01*
X117571889Y-82491531D01*
X117613901Y-82781019D01*
X117711581Y-83056747D01*
X117785028Y-83194157D01*
X118034103Y-83271792D01*
X118882895Y-82423000D01*
X119242105Y-82423000D01*
X120090897Y-83271792D01*
X120339972Y-83194157D01*
X120465871Y-82930117D01*
X120471289Y-82908772D01*
X120511602Y-83006097D01*
X120646320Y-83207717D01*
X120817783Y-83379180D01*
X121019403Y-83513898D01*
X121243431Y-83606693D01*
X121481257Y-83654000D01*
X121723743Y-83654000D01*
X121961569Y-83606693D01*
X122185597Y-83513898D01*
X122387217Y-83379180D01*
X122558680Y-83207717D01*
X122693398Y-83006097D01*
X122786193Y-82782069D01*
X122833500Y-82544243D01*
X122833500Y-82301757D01*
X122786193Y-82063931D01*
X122693398Y-81839903D01*
X122558680Y-81638283D01*
X122387217Y-81466820D01*
X122185597Y-81332102D01*
X121961569Y-81239307D01*
X121723743Y-81192000D01*
X121481257Y-81192000D01*
X121243431Y-81239307D01*
X121019403Y-81332102D01*
X120817783Y-81466820D01*
X120646320Y-81638283D01*
X120511602Y-81839903D01*
X120468352Y-81944317D01*
X120413419Y-81789253D01*
X120339972Y-81651843D01*
X120090897Y-81574208D01*
X119242105Y-82423000D01*
X118882895Y-82423000D01*
X118034103Y-81574208D01*
X117785028Y-81651843D01*
X117659129Y-81915883D01*
X117587161Y-82199411D01*
X117571889Y-82491531D01*
X114198000Y-82491531D01*
X114198000Y-81051000D01*
X118488260Y-81051000D01*
X118428753Y-81072081D01*
X118291343Y-81145528D01*
X118213708Y-81394603D01*
X119062500Y-82243395D01*
X119911292Y-81394603D01*
X119833657Y-81145528D01*
X119635409Y-81051000D01*
X126126281Y-81051000D01*
X125915580Y-81151359D01*
X125682231Y-81325412D01*
X125487322Y-81541645D01*
X125338343Y-81791748D01*
X125280728Y-81954168D01*
X125233398Y-81839903D01*
X125098680Y-81638283D01*
X124927217Y-81466820D01*
X124725597Y-81332102D01*
X124501569Y-81239307D01*
X124263743Y-81192000D01*
X124021257Y-81192000D01*
X123783431Y-81239307D01*
X123559403Y-81332102D01*
X123357783Y-81466820D01*
X123186320Y-81638283D01*
X123051602Y-81839903D01*
X122958807Y-82063931D01*
X122911500Y-82301757D01*
X122911500Y-82544243D01*
X122958807Y-82782069D01*
X123051602Y-83006097D01*
X123186320Y-83207717D01*
X123357783Y-83379180D01*
X123559403Y-83513898D01*
X123561501Y-83514767D01*
X123561500Y-84700780D01*
X123558689Y-84729320D01*
X123561500Y-84757859D01*
X123569907Y-84843215D01*
X123603129Y-84952734D01*
X123657079Y-85053667D01*
X123729683Y-85142137D01*
X123751860Y-85160337D01*
X125664752Y-87073231D01*
X125682943Y-87095397D01*
X125705109Y-87113588D01*
X125705111Y-87113590D01*
X125771412Y-87168001D01*
X125872345Y-87221951D01*
X125981864Y-87255173D01*
X126095760Y-87266391D01*
X126124300Y-87263580D01*
X130155323Y-87263580D01*
X130817981Y-87926239D01*
X130817980Y-92447819D01*
X130792338Y-92473461D01*
X130706867Y-92601378D01*
X130647993Y-92743511D01*
X130617980Y-92894398D01*
X130617980Y-93048242D01*
X130647993Y-93199129D01*
X130706867Y-93341262D01*
X130792338Y-93469179D01*
X130901121Y-93577962D01*
X131029038Y-93663433D01*
X131171171Y-93722307D01*
X131322058Y-93752320D01*
X131475902Y-93752320D01*
X131626789Y-93722307D01*
X131768922Y-93663433D01*
X131896839Y-93577962D01*
X132005622Y-93469179D01*
X132091093Y-93341262D01*
X132149967Y-93199129D01*
X132179980Y-93048242D01*
X132179980Y-92894398D01*
X132149967Y-92743511D01*
X132091093Y-92601378D01*
X132005622Y-92473461D01*
X131979980Y-92447819D01*
X131979980Y-87714119D01*
X131982791Y-87685579D01*
X131971573Y-87571684D01*
X131938351Y-87462165D01*
X131915991Y-87420333D01*
X131884401Y-87361232D01*
X131811797Y-87272763D01*
X131789625Y-87254567D01*
X130826997Y-86291940D01*
X130808797Y-86269763D01*
X130786324Y-86251320D01*
X131871400Y-86251320D01*
X131887445Y-86414224D01*
X131934962Y-86570868D01*
X132012126Y-86715232D01*
X132115972Y-86841768D01*
X132242508Y-86945614D01*
X132386872Y-87022778D01*
X132543516Y-87070295D01*
X132665605Y-87082320D01*
X133407120Y-87082320D01*
X133302308Y-87152353D01*
X133207453Y-87247208D01*
X133132926Y-87358746D01*
X133081591Y-87482680D01*
X133055420Y-87614247D01*
X133055420Y-87748393D01*
X133081591Y-87879960D01*
X133132926Y-88003894D01*
X133207453Y-88115432D01*
X133302308Y-88210287D01*
X133413846Y-88284814D01*
X133537780Y-88336149D01*
X133669347Y-88362320D01*
X133803493Y-88362320D01*
X133935060Y-88336149D01*
X134058994Y-88284814D01*
X134170532Y-88210287D01*
X134265387Y-88115432D01*
X134339914Y-88003894D01*
X134391249Y-87879960D01*
X134417420Y-87748393D01*
X134417420Y-87614247D01*
X134391249Y-87482680D01*
X134339914Y-87358746D01*
X134265387Y-87247208D01*
X134170532Y-87152353D01*
X134058994Y-87077826D01*
X134010591Y-87057777D01*
X134125968Y-87022778D01*
X134270332Y-86945614D01*
X134396868Y-86841768D01*
X134500714Y-86715232D01*
X134577878Y-86570868D01*
X134625395Y-86414224D01*
X134641440Y-86251320D01*
X136191400Y-86251320D01*
X136207445Y-86414224D01*
X136254962Y-86570868D01*
X136332126Y-86715232D01*
X136435972Y-86841768D01*
X136562508Y-86945614D01*
X136706872Y-87022778D01*
X136863516Y-87070295D01*
X136985605Y-87082320D01*
X137867235Y-87082320D01*
X137989324Y-87070295D01*
X138145968Y-87022778D01*
X138290332Y-86945614D01*
X138416868Y-86841768D01*
X138520714Y-86715232D01*
X138597878Y-86570868D01*
X138645395Y-86414224D01*
X138661440Y-86251320D01*
X138645395Y-86088416D01*
X138597878Y-85931772D01*
X138520714Y-85787408D01*
X138416868Y-85660872D01*
X138290332Y-85557026D01*
X138145968Y-85479862D01*
X137989324Y-85432345D01*
X137867235Y-85420320D01*
X136985605Y-85420320D01*
X136863516Y-85432345D01*
X136706872Y-85479862D01*
X136562508Y-85557026D01*
X136435972Y-85660872D01*
X136332126Y-85787408D01*
X136254962Y-85931772D01*
X136207445Y-86088416D01*
X136191400Y-86251320D01*
X134641440Y-86251320D01*
X134625395Y-86088416D01*
X134577878Y-85931772D01*
X134500714Y-85787408D01*
X134396868Y-85660872D01*
X134270332Y-85557026D01*
X134125968Y-85479862D01*
X133969324Y-85432345D01*
X133847235Y-85420320D01*
X132665605Y-85420320D01*
X132543516Y-85432345D01*
X132386872Y-85479862D01*
X132242508Y-85557026D01*
X132115972Y-85660872D01*
X132012126Y-85787408D01*
X131934962Y-85931772D01*
X131887445Y-86088416D01*
X131871400Y-86251320D01*
X130786324Y-86251320D01*
X130720328Y-86197159D01*
X130619395Y-86143209D01*
X130509876Y-86109987D01*
X130424520Y-86101580D01*
X130395980Y-86098769D01*
X130367440Y-86101580D01*
X126336419Y-86101580D01*
X124723500Y-84488663D01*
X124723500Y-83514767D01*
X124725597Y-83513898D01*
X124927217Y-83379180D01*
X125098680Y-83207717D01*
X125233398Y-83006097D01*
X125280728Y-82891832D01*
X125338343Y-83054252D01*
X125487322Y-83304355D01*
X125682231Y-83520588D01*
X125915580Y-83694641D01*
X126178401Y-83819825D01*
X126325610Y-83864476D01*
X126555500Y-83743155D01*
X126555500Y-82550000D01*
X126809500Y-82550000D01*
X126809500Y-83743155D01*
X127039390Y-83864476D01*
X127186599Y-83819825D01*
X127449420Y-83694641D01*
X127682769Y-83520588D01*
X127877678Y-83304355D01*
X128026657Y-83054252D01*
X128123981Y-82779891D01*
X128003314Y-82550000D01*
X126809500Y-82550000D01*
X126555500Y-82550000D01*
X126535500Y-82550000D01*
X126535500Y-82296000D01*
X126555500Y-82296000D01*
X126555500Y-82276000D01*
X126809500Y-82276000D01*
X126809500Y-82296000D01*
X128003314Y-82296000D01*
X128123981Y-82066109D01*
X128026657Y-81791748D01*
X127877678Y-81541645D01*
X127682769Y-81325412D01*
X127449420Y-81151359D01*
X127238719Y-81051000D01*
X131166001Y-81051000D01*
X131166000Y-82911059D01*
X131164036Y-82931000D01*
X131171875Y-83010590D01*
X131195090Y-83087121D01*
X131232790Y-83157653D01*
X131262749Y-83194157D01*
X131283526Y-83219474D01*
X131345347Y-83270210D01*
X131415879Y-83307910D01*
X131492410Y-83331125D01*
X131572000Y-83338964D01*
X131591940Y-83337000D01*
X133965060Y-83337000D01*
X133985000Y-83338964D01*
X134064590Y-83331125D01*
X134141121Y-83307910D01*
X134211653Y-83270210D01*
X134273474Y-83219474D01*
X134324210Y-83157653D01*
X134361910Y-83087121D01*
X134385125Y-83010590D01*
X134391000Y-82950941D01*
X134391000Y-82950940D01*
X134392964Y-82931000D01*
X134391000Y-82911059D01*
X134391000Y-81051000D01*
X137590262Y-81051000D01*
X137657119Y-81079655D01*
X137744170Y-81098159D01*
X137750502Y-81098824D01*
X138051354Y-81128323D01*
X138297943Y-81202772D01*
X138525373Y-81323699D01*
X138724987Y-81486500D01*
X138889173Y-81684968D01*
X139011687Y-81911549D01*
X139087857Y-82157615D01*
X139119455Y-82458252D01*
X139121369Y-82467578D01*
X139125994Y-82513120D01*
X139152011Y-82598227D01*
X139167001Y-82626185D01*
X139167000Y-95807262D01*
X139138345Y-95874119D01*
X139119841Y-95961170D01*
X139119176Y-95967502D01*
X139089677Y-96268354D01*
X139015228Y-96514943D01*
X138894301Y-96742373D01*
X138731500Y-96941987D01*
X138533033Y-97106173D01*
X138306446Y-97228689D01*
X138060385Y-97304857D01*
X137759748Y-97336455D01*
X137750422Y-97338369D01*
X137704880Y-97342994D01*
X137619773Y-97369011D01*
X137591817Y-97384000D01*
X124485000Y-97384000D01*
X124485000Y-95523941D01*
X124486964Y-95504000D01*
X124479125Y-95424410D01*
X124455910Y-95347879D01*
X124418210Y-95277347D01*
X124367474Y-95215526D01*
X124305653Y-95164790D01*
X124235121Y-95127090D01*
X124158590Y-95103875D01*
X124098941Y-95098000D01*
X124098940Y-95098000D01*
X124079000Y-95096036D01*
X124059059Y-95098000D01*
X121685941Y-95098000D01*
X121666000Y-95096036D01*
X121646060Y-95098000D01*
X121646059Y-95098000D01*
X121586410Y-95103875D01*
X121509879Y-95127090D01*
X121439347Y-95164790D01*
X121377526Y-95215526D01*
X121326790Y-95277347D01*
X121289090Y-95347879D01*
X121265875Y-95424410D01*
X121258036Y-95504000D01*
X121260001Y-95523951D01*
X121260000Y-97384000D01*
X107900738Y-97384000D01*
X107833881Y-97355345D01*
X107746830Y-97336841D01*
X107740498Y-97336176D01*
X107439646Y-97306677D01*
X107193057Y-97232228D01*
X106965627Y-97111301D01*
X106766013Y-96948500D01*
X106601827Y-96750033D01*
X106479311Y-96523446D01*
X106403143Y-96277385D01*
X106371545Y-95976748D01*
X106369631Y-95967422D01*
X106365006Y-95921880D01*
X106338989Y-95836773D01*
X106324000Y-95808817D01*
X106324000Y-94891320D01*
X106781300Y-94891320D01*
X106797345Y-95054224D01*
X106844862Y-95210868D01*
X106922026Y-95355232D01*
X107025872Y-95481768D01*
X107152408Y-95585614D01*
X107296772Y-95662778D01*
X107453416Y-95710295D01*
X107575505Y-95722320D01*
X108457135Y-95722320D01*
X108579224Y-95710295D01*
X108735868Y-95662778D01*
X108880232Y-95585614D01*
X109006768Y-95481768D01*
X109110614Y-95355232D01*
X109187778Y-95210868D01*
X109235295Y-95054224D01*
X109251340Y-94891320D01*
X110801300Y-94891320D01*
X110817345Y-95054224D01*
X110864862Y-95210868D01*
X110942026Y-95355232D01*
X111045872Y-95481768D01*
X111172408Y-95585614D01*
X111316772Y-95662778D01*
X111473416Y-95710295D01*
X111595505Y-95722320D01*
X112777135Y-95722320D01*
X112899224Y-95710295D01*
X113055868Y-95662778D01*
X113200232Y-95585614D01*
X113326768Y-95481768D01*
X113430614Y-95355232D01*
X113507778Y-95210868D01*
X113555295Y-95054224D01*
X113571340Y-94891320D01*
X131871400Y-94891320D01*
X131887445Y-95054224D01*
X131934962Y-95210868D01*
X132012126Y-95355232D01*
X132115972Y-95481768D01*
X132242508Y-95585614D01*
X132386872Y-95662778D01*
X132543516Y-95710295D01*
X132665605Y-95722320D01*
X133847235Y-95722320D01*
X133969324Y-95710295D01*
X134125968Y-95662778D01*
X134270332Y-95585614D01*
X134396868Y-95481768D01*
X134500714Y-95355232D01*
X134577878Y-95210868D01*
X134625395Y-95054224D01*
X134641440Y-94891320D01*
X136191400Y-94891320D01*
X136207445Y-95054224D01*
X136254962Y-95210868D01*
X136332126Y-95355232D01*
X136435972Y-95481768D01*
X136562508Y-95585614D01*
X136706872Y-95662778D01*
X136863516Y-95710295D01*
X136985605Y-95722320D01*
X137867235Y-95722320D01*
X137989324Y-95710295D01*
X138145968Y-95662778D01*
X138290332Y-95585614D01*
X138416868Y-95481768D01*
X138520714Y-95355232D01*
X138597878Y-95210868D01*
X138645395Y-95054224D01*
X138661440Y-94891320D01*
X138645395Y-94728416D01*
X138597878Y-94571772D01*
X138520714Y-94427408D01*
X138416868Y-94300872D01*
X138290332Y-94197026D01*
X138145968Y-94119862D01*
X137989324Y-94072345D01*
X137867235Y-94060320D01*
X136985605Y-94060320D01*
X136863516Y-94072345D01*
X136706872Y-94119862D01*
X136562508Y-94197026D01*
X136435972Y-94300872D01*
X136332126Y-94427408D01*
X136254962Y-94571772D01*
X136207445Y-94728416D01*
X136191400Y-94891320D01*
X134641440Y-94891320D01*
X134625395Y-94728416D01*
X134577878Y-94571772D01*
X134500714Y-94427408D01*
X134396868Y-94300872D01*
X134270332Y-94197026D01*
X134125968Y-94119862D01*
X134010591Y-94084863D01*
X134058994Y-94064814D01*
X134170532Y-93990287D01*
X134265387Y-93895432D01*
X134339914Y-93783894D01*
X134391249Y-93659960D01*
X134417420Y-93528393D01*
X134417420Y-93394247D01*
X134391249Y-93262680D01*
X134339914Y-93138746D01*
X134265387Y-93027208D01*
X134170532Y-92932353D01*
X134058994Y-92857826D01*
X133935060Y-92806491D01*
X133803493Y-92780320D01*
X133669347Y-92780320D01*
X133537780Y-92806491D01*
X133413846Y-92857826D01*
X133302308Y-92932353D01*
X133207453Y-93027208D01*
X133132926Y-93138746D01*
X133081591Y-93262680D01*
X133055420Y-93394247D01*
X133055420Y-93528393D01*
X133081591Y-93659960D01*
X133132926Y-93783894D01*
X133207453Y-93895432D01*
X133302308Y-93990287D01*
X133407120Y-94060320D01*
X132665605Y-94060320D01*
X132543516Y-94072345D01*
X132386872Y-94119862D01*
X132242508Y-94197026D01*
X132115972Y-94300872D01*
X132012126Y-94427408D01*
X131934962Y-94571772D01*
X131887445Y-94728416D01*
X131871400Y-94891320D01*
X113571340Y-94891320D01*
X113555295Y-94728416D01*
X113507778Y-94571772D01*
X113430614Y-94427408D01*
X113326768Y-94300872D01*
X113200232Y-94197026D01*
X113055868Y-94119862D01*
X112899224Y-94072345D01*
X112777135Y-94060320D01*
X112035620Y-94060320D01*
X112140432Y-93990287D01*
X112235287Y-93895432D01*
X112309814Y-93783894D01*
X112361149Y-93659960D01*
X112387320Y-93528393D01*
X112387320Y-93394247D01*
X112361149Y-93262680D01*
X112346552Y-93227438D01*
X113389460Y-93227438D01*
X113389460Y-93381282D01*
X113419473Y-93532169D01*
X113478347Y-93674302D01*
X113563818Y-93802219D01*
X113672601Y-93911002D01*
X113800518Y-93996473D01*
X113942651Y-94055347D01*
X114093538Y-94085360D01*
X114247382Y-94085360D01*
X114398269Y-94055347D01*
X114540402Y-93996473D01*
X114668319Y-93911002D01*
X114777102Y-93802219D01*
X114862573Y-93674302D01*
X114921447Y-93532169D01*
X114951460Y-93381282D01*
X114951460Y-93227438D01*
X114921447Y-93076551D01*
X114920617Y-93074547D01*
X117886020Y-93074547D01*
X117886020Y-93208693D01*
X117912191Y-93340260D01*
X117963526Y-93464194D01*
X118038053Y-93575732D01*
X118132908Y-93670587D01*
X118244446Y-93745114D01*
X118368380Y-93796449D01*
X118499947Y-93822620D01*
X118634093Y-93822620D01*
X118765660Y-93796449D01*
X118889594Y-93745114D01*
X119001132Y-93670587D01*
X119024099Y-93647620D01*
X124576174Y-93647620D01*
X124601020Y-93650067D01*
X124625866Y-93647620D01*
X124625874Y-93647620D01*
X124700213Y-93640298D01*
X124795595Y-93611365D01*
X124883499Y-93564379D01*
X124960547Y-93501147D01*
X124976396Y-93481835D01*
X127955912Y-90502320D01*
X127988393Y-90502320D01*
X128119960Y-90476149D01*
X128243894Y-90424814D01*
X128355432Y-90350287D01*
X128450287Y-90255432D01*
X128524814Y-90143894D01*
X128576149Y-90019960D01*
X128602320Y-89888393D01*
X128602320Y-89754247D01*
X128576149Y-89622680D01*
X128524814Y-89498746D01*
X128450287Y-89387208D01*
X128355432Y-89292353D01*
X128243894Y-89217826D01*
X128119960Y-89166491D01*
X127988393Y-89140320D01*
X127854247Y-89140320D01*
X127722680Y-89166491D01*
X127598746Y-89217826D01*
X127487208Y-89292353D01*
X127392353Y-89387208D01*
X127317826Y-89498746D01*
X127266491Y-89622680D01*
X127240320Y-89754247D01*
X127240320Y-89786728D01*
X124391429Y-92635620D01*
X119024099Y-92635620D01*
X119001132Y-92612653D01*
X118889594Y-92538126D01*
X118765660Y-92486791D01*
X118634093Y-92460620D01*
X118499947Y-92460620D01*
X118368380Y-92486791D01*
X118244446Y-92538126D01*
X118132908Y-92612653D01*
X118038053Y-92707508D01*
X117963526Y-92819046D01*
X117912191Y-92942980D01*
X117886020Y-93074547D01*
X114920617Y-93074547D01*
X114862573Y-92934418D01*
X114777102Y-92806501D01*
X114751460Y-92780859D01*
X114751460Y-88752320D01*
X119468084Y-88752320D01*
X119527738Y-88841599D01*
X119636521Y-88950382D01*
X119764438Y-89035853D01*
X119906571Y-89094727D01*
X120057458Y-89124740D01*
X120211302Y-89124740D01*
X120362189Y-89094727D01*
X120504322Y-89035853D01*
X120632239Y-88950382D01*
X120741022Y-88841599D01*
X120826493Y-88713682D01*
X120885367Y-88571549D01*
X120915380Y-88420662D01*
X120915380Y-88266818D01*
X120885367Y-88115931D01*
X120826493Y-87973798D01*
X120741022Y-87845881D01*
X120632239Y-87737098D01*
X120504322Y-87651627D01*
X120362189Y-87592753D01*
X120211302Y-87562740D01*
X120057458Y-87562740D01*
X119918803Y-87590320D01*
X114711441Y-87590320D01*
X114685799Y-87564678D01*
X114557882Y-87479207D01*
X114415749Y-87420333D01*
X114264862Y-87390320D01*
X114111018Y-87390320D01*
X113960131Y-87420333D01*
X113817998Y-87479207D01*
X113690081Y-87564678D01*
X113581298Y-87673461D01*
X113495827Y-87801378D01*
X113436953Y-87943511D01*
X113406940Y-88094398D01*
X113406940Y-88248242D01*
X113436953Y-88399129D01*
X113495827Y-88541262D01*
X113581298Y-88669179D01*
X113589461Y-88677342D01*
X113589460Y-92780859D01*
X113563818Y-92806501D01*
X113478347Y-92934418D01*
X113419473Y-93076551D01*
X113389460Y-93227438D01*
X112346552Y-93227438D01*
X112309814Y-93138746D01*
X112235287Y-93027208D01*
X112140432Y-92932353D01*
X112028894Y-92857826D01*
X111904960Y-92806491D01*
X111773393Y-92780320D01*
X111639247Y-92780320D01*
X111507680Y-92806491D01*
X111383746Y-92857826D01*
X111272208Y-92932353D01*
X111177353Y-93027208D01*
X111102826Y-93138746D01*
X111051491Y-93262680D01*
X111025320Y-93394247D01*
X111025320Y-93528393D01*
X111051491Y-93659960D01*
X111102826Y-93783894D01*
X111177353Y-93895432D01*
X111272208Y-93990287D01*
X111383746Y-94064814D01*
X111432149Y-94084863D01*
X111316772Y-94119862D01*
X111172408Y-94197026D01*
X111045872Y-94300872D01*
X110942026Y-94427408D01*
X110864862Y-94571772D01*
X110817345Y-94728416D01*
X110801300Y-94891320D01*
X109251340Y-94891320D01*
X109235295Y-94728416D01*
X109187778Y-94571772D01*
X109110614Y-94427408D01*
X109006768Y-94300872D01*
X108880232Y-94197026D01*
X108735868Y-94119862D01*
X108579224Y-94072345D01*
X108457135Y-94060320D01*
X107575505Y-94060320D01*
X107453416Y-94072345D01*
X107296772Y-94119862D01*
X107152408Y-94197026D01*
X107025872Y-94300872D01*
X106922026Y-94427408D01*
X106844862Y-94571772D01*
X106797345Y-94728416D01*
X106781300Y-94891320D01*
X106324000Y-94891320D01*
X106324000Y-86251320D01*
X106781300Y-86251320D01*
X106797345Y-86414224D01*
X106844862Y-86570868D01*
X106922026Y-86715232D01*
X107025872Y-86841768D01*
X107152408Y-86945614D01*
X107296772Y-87022778D01*
X107453416Y-87070295D01*
X107575505Y-87082320D01*
X108457135Y-87082320D01*
X108579224Y-87070295D01*
X108735868Y-87022778D01*
X108880232Y-86945614D01*
X109006768Y-86841768D01*
X109110614Y-86715232D01*
X109187778Y-86570868D01*
X109235295Y-86414224D01*
X109251340Y-86251320D01*
X110801300Y-86251320D01*
X110817345Y-86414224D01*
X110864862Y-86570868D01*
X110942026Y-86715232D01*
X111045872Y-86841768D01*
X111172408Y-86945614D01*
X111316772Y-87022778D01*
X111432149Y-87057777D01*
X111383746Y-87077826D01*
X111272208Y-87152353D01*
X111177353Y-87247208D01*
X111102826Y-87358746D01*
X111051491Y-87482680D01*
X111025320Y-87614247D01*
X111025320Y-87748393D01*
X111051491Y-87879960D01*
X111102826Y-88003894D01*
X111177353Y-88115432D01*
X111272208Y-88210287D01*
X111383746Y-88284814D01*
X111507680Y-88336149D01*
X111639247Y-88362320D01*
X111773393Y-88362320D01*
X111904960Y-88336149D01*
X112028894Y-88284814D01*
X112140432Y-88210287D01*
X112235287Y-88115432D01*
X112309814Y-88003894D01*
X112361149Y-87879960D01*
X112387320Y-87748393D01*
X112387320Y-87614247D01*
X112361149Y-87482680D01*
X112309814Y-87358746D01*
X112235287Y-87247208D01*
X112140432Y-87152353D01*
X112035620Y-87082320D01*
X112777135Y-87082320D01*
X112899224Y-87070295D01*
X113055868Y-87022778D01*
X113200232Y-86945614D01*
X113326768Y-86841768D01*
X113430614Y-86715232D01*
X113507778Y-86570868D01*
X113555295Y-86414224D01*
X113571340Y-86251320D01*
X113555295Y-86088416D01*
X113507778Y-85931772D01*
X113430614Y-85787408D01*
X113326768Y-85660872D01*
X113200232Y-85557026D01*
X113055868Y-85479862D01*
X112899224Y-85432345D01*
X112777135Y-85420320D01*
X111595505Y-85420320D01*
X111473416Y-85432345D01*
X111316772Y-85479862D01*
X111172408Y-85557026D01*
X111045872Y-85660872D01*
X110942026Y-85787408D01*
X110864862Y-85931772D01*
X110817345Y-86088416D01*
X110801300Y-86251320D01*
X109251340Y-86251320D01*
X109235295Y-86088416D01*
X109187778Y-85931772D01*
X109110614Y-85787408D01*
X109006768Y-85660872D01*
X108880232Y-85557026D01*
X108735868Y-85479862D01*
X108579224Y-85432345D01*
X108457135Y-85420320D01*
X107575505Y-85420320D01*
X107453416Y-85432345D01*
X107296772Y-85479862D01*
X107152408Y-85557026D01*
X107025872Y-85660872D01*
X106922026Y-85787408D01*
X106844862Y-85931772D01*
X106797345Y-86088416D01*
X106781300Y-86251320D01*
X106324000Y-86251320D01*
X106324000Y-83451397D01*
X118213708Y-83451397D01*
X118291343Y-83700472D01*
X118555383Y-83826371D01*
X118838911Y-83898339D01*
X119131031Y-83913611D01*
X119420519Y-83871599D01*
X119696247Y-83773919D01*
X119833657Y-83700472D01*
X119911292Y-83451397D01*
X119062500Y-82602605D01*
X118213708Y-83451397D01*
X106324000Y-83451397D01*
X106324000Y-82627738D01*
X106352655Y-82560881D01*
X106371159Y-82473830D01*
X106371824Y-82467498D01*
X106401323Y-82166646D01*
X106475772Y-81920057D01*
X106596699Y-81692627D01*
X106759500Y-81493013D01*
X106957968Y-81328827D01*
X107184549Y-81206313D01*
X107430615Y-81130143D01*
X107731252Y-81098545D01*
X107740578Y-81096631D01*
X107786120Y-81092006D01*
X107871227Y-81065989D01*
X107899183Y-81051000D01*
X110973001Y-81051000D01*
X110973000Y-82911059D01*
G37*
G04 #@! TD.AperFunction*
M02*
