M48
; DRILL file {KiCad (5.1.10)-1} date 10/03/21 11:44:44
; FORMAT={-:-/ absolute / inch / decimal}
; #@! TF.CreationDate,2021-10-03T11:44:44+02:00
; #@! TF.GenerationSoftware,Kicad,Pcbnew,(5.1.10)-1
FMAT,2
INCH
T1C0.0118
T2C0.0157
T3C0.0236
T4C0.0394
T5C0.0236
%
G90
G05
T1
X4.668Y-3.667
X5.0363Y-3.5363
T2
X4.4949Y-3.6734
X4.4956Y-3.4713
X4.7297Y-3.4781
X5.08Y-3.49
X5.12Y-3.595
X5.1732Y-3.6603
T4
X4.6875Y-3.245
X4.7875Y-3.245
X4.8875Y-3.245
X4.9875Y-3.245
T5
X4.3979Y-3.452
X4.3979Y-3.6796
X5.2652Y-3.452
X5.2652Y-3.6796
T3
G00X4.2369Y-3.3957
M15
G01X4.2684Y-3.3957
M16
G05
G00X4.2369Y-3.7359
M15
G01X4.2684Y-3.7359
M16
G05
G00X4.3951Y-3.3957
M15
G01X4.4384Y-3.3957
M16
G05
G00X4.3951Y-3.7359
M15
G01X4.4384Y-3.7359
M16
G05
G00X5.268Y-3.3957
M15
G01X5.2247Y-3.3957
M16
G05
G00X5.268Y-3.7359
M15
G01X5.2247Y-3.7359
M16
G05
G00X5.4262Y-3.3957
M15
G01X5.3947Y-3.3957
M16
G05
G00X5.4262Y-3.7359
M15
G01X5.3947Y-3.7359
M16
G05
T0
M30
