G04 #@! TF.GenerationSoftware,KiCad,Pcbnew,(5.1.10)-1*
G04 #@! TF.CreationDate,2021-10-03T11:45:08+02:00*
G04 #@! TF.ProjectId,PPK2-USB_C-Adapter_v1.0,50504b32-2d55-4534-925f-432d41646170,1.0*
G04 #@! TF.SameCoordinates,Original*
G04 #@! TF.FileFunction,Soldermask,Top*
G04 #@! TF.FilePolarity,Negative*
%FSLAX46Y46*%
G04 Gerber Fmt 4.6, Leading zero omitted, Abs format (unit mm)*
G04 Created by KiCad (PCBNEW (5.1.10)-1) date 2021-10-03 11:45:08*
%MOMM*%
%LPD*%
G01*
G04 APERTURE LIST*
%ADD10C,1.700000*%
%ADD11O,1.700000X1.700000*%
%ADD12R,1.160000X0.600000*%
%ADD13C,0.600000*%
%ADD14R,1.160000X0.300000*%
%ADD15O,1.700000X0.900000*%
%ADD16O,2.000000X0.900000*%
%ADD17R,1.400000X1.200000*%
%ADD18R,1.400000X1.000000*%
%ADD19R,0.900000X1.200000*%
G04 APERTURE END LIST*
D10*
X119062500Y-82423000D03*
D11*
X121602500Y-82423000D03*
X124142500Y-82423000D03*
X126682500Y-82423000D03*
D12*
X132676420Y-87371320D03*
X132676420Y-88171320D03*
X132676420Y-87371320D03*
X132676420Y-88171320D03*
X132676420Y-93771320D03*
X132676420Y-93771320D03*
X132676420Y-92971320D03*
X132676420Y-92971320D03*
D13*
X133736420Y-93461320D03*
X133736420Y-87681320D03*
D14*
X132676420Y-88821320D03*
X132676420Y-89821320D03*
X132676420Y-89321320D03*
X132676420Y-91821320D03*
X132676420Y-92321320D03*
X132676420Y-90321320D03*
X132676420Y-90821320D03*
X132676420Y-91321320D03*
D15*
X137426420Y-86251320D03*
X137426420Y-94891320D03*
D16*
X133256420Y-86251320D03*
X133256420Y-94891320D03*
X112186320Y-86251320D03*
X112186320Y-94891320D03*
D15*
X108016320Y-86251320D03*
X108016320Y-94891320D03*
D14*
X112766320Y-89821320D03*
X112766320Y-90321320D03*
X112766320Y-90821320D03*
X112766320Y-88821320D03*
X112766320Y-89321320D03*
X112766320Y-91821320D03*
X112766320Y-91321320D03*
X112766320Y-92321320D03*
D13*
X111706320Y-93461320D03*
X111706320Y-87681320D03*
D12*
X112766320Y-88171320D03*
X112766320Y-88171320D03*
X112766320Y-87371320D03*
X112766320Y-87371320D03*
X112766320Y-92971320D03*
X112766320Y-93771320D03*
X112766320Y-92971320D03*
X112766320Y-93771320D03*
D17*
X120767020Y-91442920D03*
D18*
X120767020Y-89722920D03*
X118567020Y-89722920D03*
X118567020Y-91622920D03*
D19*
X126239540Y-89758520D03*
X122939540Y-89758520D03*
G36*
G01*
X111937580Y-96804060D02*
X111937580Y-96434060D01*
G75*
G02*
X112072580Y-96299060I135000J0D01*
G01*
X112342580Y-96299060D01*
G75*
G02*
X112477580Y-96434060I0J-135000D01*
G01*
X112477580Y-96804060D01*
G75*
G02*
X112342580Y-96939060I-135000J0D01*
G01*
X112072580Y-96939060D01*
G75*
G02*
X111937580Y-96804060I0J135000D01*
G01*
G37*
G36*
G01*
X112957580Y-96804060D02*
X112957580Y-96434060D01*
G75*
G02*
X113092580Y-96299060I135000J0D01*
G01*
X113362580Y-96299060D01*
G75*
G02*
X113497580Y-96434060I0J-135000D01*
G01*
X113497580Y-96804060D01*
G75*
G02*
X113362580Y-96939060I-135000J0D01*
G01*
X113092580Y-96939060D01*
G75*
G02*
X112957580Y-96804060I0J135000D01*
G01*
G37*
G36*
G01*
X115113220Y-93356400D02*
X115483220Y-93356400D01*
G75*
G02*
X115618220Y-93491400I0J-135000D01*
G01*
X115618220Y-93761400D01*
G75*
G02*
X115483220Y-93896400I-135000J0D01*
G01*
X115113220Y-93896400D01*
G75*
G02*
X114978220Y-93761400I0J135000D01*
G01*
X114978220Y-93491400D01*
G75*
G02*
X115113220Y-93356400I135000J0D01*
G01*
G37*
G36*
G01*
X115113220Y-92336400D02*
X115483220Y-92336400D01*
G75*
G02*
X115618220Y-92471400I0J-135000D01*
G01*
X115618220Y-92741400D01*
G75*
G02*
X115483220Y-92876400I-135000J0D01*
G01*
X115113220Y-92876400D01*
G75*
G02*
X114978220Y-92741400I0J135000D01*
G01*
X114978220Y-92471400D01*
G75*
G02*
X115113220Y-92336400I135000J0D01*
G01*
G37*
G36*
G01*
X115483220Y-88971340D02*
X115113220Y-88971340D01*
G75*
G02*
X114978220Y-88836340I0J135000D01*
G01*
X114978220Y-88566340D01*
G75*
G02*
X115113220Y-88431340I135000J0D01*
G01*
X115483220Y-88431340D01*
G75*
G02*
X115618220Y-88566340I0J-135000D01*
G01*
X115618220Y-88836340D01*
G75*
G02*
X115483220Y-88971340I-135000J0D01*
G01*
G37*
G36*
G01*
X115483220Y-87951340D02*
X115113220Y-87951340D01*
G75*
G02*
X114978220Y-87816340I0J135000D01*
G01*
X114978220Y-87546340D01*
G75*
G02*
X115113220Y-87411340I135000J0D01*
G01*
X115483220Y-87411340D01*
G75*
G02*
X115618220Y-87546340I0J-135000D01*
G01*
X115618220Y-87816340D01*
G75*
G02*
X115483220Y-87951340I-135000J0D01*
G01*
G37*
G36*
G01*
X130068740Y-93356400D02*
X130438740Y-93356400D01*
G75*
G02*
X130573740Y-93491400I0J-135000D01*
G01*
X130573740Y-93761400D01*
G75*
G02*
X130438740Y-93896400I-135000J0D01*
G01*
X130068740Y-93896400D01*
G75*
G02*
X129933740Y-93761400I0J135000D01*
G01*
X129933740Y-93491400D01*
G75*
G02*
X130068740Y-93356400I135000J0D01*
G01*
G37*
G36*
G01*
X130068740Y-92336400D02*
X130438740Y-92336400D01*
G75*
G02*
X130573740Y-92471400I0J-135000D01*
G01*
X130573740Y-92741400D01*
G75*
G02*
X130438740Y-92876400I-135000J0D01*
G01*
X130068740Y-92876400D01*
G75*
G02*
X129933740Y-92741400I0J135000D01*
G01*
X129933740Y-92471400D01*
G75*
G02*
X130068740Y-92336400I135000J0D01*
G01*
G37*
G36*
G01*
X130438740Y-88971340D02*
X130068740Y-88971340D01*
G75*
G02*
X129933740Y-88836340I0J135000D01*
G01*
X129933740Y-88566340D01*
G75*
G02*
X130068740Y-88431340I135000J0D01*
G01*
X130438740Y-88431340D01*
G75*
G02*
X130573740Y-88566340I0J-135000D01*
G01*
X130573740Y-88836340D01*
G75*
G02*
X130438740Y-88971340I-135000J0D01*
G01*
G37*
G36*
G01*
X130438740Y-87951340D02*
X130068740Y-87951340D01*
G75*
G02*
X129933740Y-87816340I0J135000D01*
G01*
X129933740Y-87546340D01*
G75*
G02*
X130068740Y-87411340I135000J0D01*
G01*
X130438740Y-87411340D01*
G75*
G02*
X130573740Y-87546340I0J-135000D01*
G01*
X130573740Y-87816340D01*
G75*
G02*
X130438740Y-87951340I-135000J0D01*
G01*
G37*
G36*
G01*
X132513100Y-96370560D02*
X132513100Y-96740560D01*
G75*
G02*
X132378100Y-96875560I-135000J0D01*
G01*
X132108100Y-96875560D01*
G75*
G02*
X131973100Y-96740560I0J135000D01*
G01*
X131973100Y-96370560D01*
G75*
G02*
X132108100Y-96235560I135000J0D01*
G01*
X132378100Y-96235560D01*
G75*
G02*
X132513100Y-96370560I0J-135000D01*
G01*
G37*
G36*
G01*
X133533100Y-96370560D02*
X133533100Y-96740560D01*
G75*
G02*
X133398100Y-96875560I-135000J0D01*
G01*
X133128100Y-96875560D01*
G75*
G02*
X132993100Y-96740560I0J135000D01*
G01*
X132993100Y-96370560D01*
G75*
G02*
X133128100Y-96235560I135000J0D01*
G01*
X133398100Y-96235560D01*
G75*
G02*
X133533100Y-96370560I0J-135000D01*
G01*
G37*
M02*
