G04 #@! TF.GenerationSoftware,KiCad,Pcbnew,(5.1.10)-1*
G04 #@! TF.CreationDate,2021-10-03T11:45:08+02:00*
G04 #@! TF.ProjectId,PPK2-USB_C-Adapter_v1.0,50504b32-2d55-4534-925f-432d41646170,1.0*
G04 #@! TF.SameCoordinates,Original*
G04 #@! TF.FileFunction,Copper,L1,Top*
G04 #@! TF.FilePolarity,Positive*
%FSLAX46Y46*%
G04 Gerber Fmt 4.6, Leading zero omitted, Abs format (unit mm)*
G04 Created by KiCad (PCBNEW (5.1.10)-1) date 2021-10-03 11:45:08*
%MOMM*%
%LPD*%
G01*
G04 APERTURE LIST*
G04 #@! TA.AperFunction,ComponentPad*
%ADD10C,1.700000*%
G04 #@! TD*
G04 #@! TA.AperFunction,ComponentPad*
%ADD11O,1.700000X1.700000*%
G04 #@! TD*
G04 #@! TA.AperFunction,SMDPad,CuDef*
%ADD12R,1.160000X0.600000*%
G04 #@! TD*
G04 #@! TA.AperFunction,SMDPad,CuDef*
%ADD13R,1.160000X0.300000*%
G04 #@! TD*
G04 #@! TA.AperFunction,ComponentPad*
%ADD14O,1.700000X0.900000*%
G04 #@! TD*
G04 #@! TA.AperFunction,ComponentPad*
%ADD15O,2.000000X0.900000*%
G04 #@! TD*
G04 #@! TA.AperFunction,SMDPad,CuDef*
%ADD16R,1.400000X1.200000*%
G04 #@! TD*
G04 #@! TA.AperFunction,SMDPad,CuDef*
%ADD17R,1.400000X1.000000*%
G04 #@! TD*
G04 #@! TA.AperFunction,SMDPad,CuDef*
%ADD18R,0.900000X1.200000*%
G04 #@! TD*
G04 #@! TA.AperFunction,ViaPad*
%ADD19C,0.800000*%
G04 #@! TD*
G04 #@! TA.AperFunction,ViaPad*
%ADD20C,0.600000*%
G04 #@! TD*
G04 #@! TA.AperFunction,Conductor*
%ADD21C,0.250000*%
G04 #@! TD*
G04 #@! TA.AperFunction,Conductor*
%ADD22C,0.400000*%
G04 #@! TD*
G04 #@! TA.AperFunction,Conductor*
%ADD23C,0.200000*%
G04 #@! TD*
G04 #@! TA.AperFunction,Conductor*
%ADD24C,0.100000*%
G04 #@! TD*
G04 APERTURE END LIST*
D10*
X119062500Y-82423000D03*
D11*
X121602500Y-82423000D03*
X124142500Y-82423000D03*
X126682500Y-82423000D03*
D12*
X132676420Y-87371320D03*
X132676420Y-88171320D03*
X132676420Y-87371320D03*
X132676420Y-88171320D03*
X132676420Y-93771320D03*
X132676420Y-93771320D03*
X132676420Y-92971320D03*
X132676420Y-92971320D03*
D13*
X132676420Y-88821320D03*
X132676420Y-89821320D03*
X132676420Y-89321320D03*
X132676420Y-91821320D03*
X132676420Y-92321320D03*
X132676420Y-90321320D03*
X132676420Y-90821320D03*
X132676420Y-91321320D03*
D14*
X137426420Y-86251320D03*
X137426420Y-94891320D03*
D15*
X133256420Y-86251320D03*
X133256420Y-94891320D03*
X112186320Y-86251320D03*
X112186320Y-94891320D03*
D14*
X108016320Y-86251320D03*
X108016320Y-94891320D03*
D13*
X112766320Y-89821320D03*
X112766320Y-90321320D03*
X112766320Y-90821320D03*
X112766320Y-88821320D03*
X112766320Y-89321320D03*
X112766320Y-91821320D03*
X112766320Y-91321320D03*
X112766320Y-92321320D03*
D12*
X112766320Y-88171320D03*
X112766320Y-88171320D03*
X112766320Y-87371320D03*
X112766320Y-87371320D03*
X112766320Y-92971320D03*
X112766320Y-93771320D03*
X112766320Y-92971320D03*
X112766320Y-93771320D03*
D16*
X120767020Y-91442920D03*
D17*
X120767020Y-89722920D03*
X118567020Y-89722920D03*
X118567020Y-91622920D03*
D18*
X126239540Y-89758520D03*
X122939540Y-89758520D03*
G04 #@! TA.AperFunction,SMDPad,CuDef*
G36*
G01*
X111937580Y-96804060D02*
X111937580Y-96434060D01*
G75*
G02*
X112072580Y-96299060I135000J0D01*
G01*
X112342580Y-96299060D01*
G75*
G02*
X112477580Y-96434060I0J-135000D01*
G01*
X112477580Y-96804060D01*
G75*
G02*
X112342580Y-96939060I-135000J0D01*
G01*
X112072580Y-96939060D01*
G75*
G02*
X111937580Y-96804060I0J135000D01*
G01*
G37*
G04 #@! TD.AperFunction*
G04 #@! TA.AperFunction,SMDPad,CuDef*
G36*
G01*
X112957580Y-96804060D02*
X112957580Y-96434060D01*
G75*
G02*
X113092580Y-96299060I135000J0D01*
G01*
X113362580Y-96299060D01*
G75*
G02*
X113497580Y-96434060I0J-135000D01*
G01*
X113497580Y-96804060D01*
G75*
G02*
X113362580Y-96939060I-135000J0D01*
G01*
X113092580Y-96939060D01*
G75*
G02*
X112957580Y-96804060I0J135000D01*
G01*
G37*
G04 #@! TD.AperFunction*
G04 #@! TA.AperFunction,SMDPad,CuDef*
G36*
G01*
X115113220Y-93356400D02*
X115483220Y-93356400D01*
G75*
G02*
X115618220Y-93491400I0J-135000D01*
G01*
X115618220Y-93761400D01*
G75*
G02*
X115483220Y-93896400I-135000J0D01*
G01*
X115113220Y-93896400D01*
G75*
G02*
X114978220Y-93761400I0J135000D01*
G01*
X114978220Y-93491400D01*
G75*
G02*
X115113220Y-93356400I135000J0D01*
G01*
G37*
G04 #@! TD.AperFunction*
G04 #@! TA.AperFunction,SMDPad,CuDef*
G36*
G01*
X115113220Y-92336400D02*
X115483220Y-92336400D01*
G75*
G02*
X115618220Y-92471400I0J-135000D01*
G01*
X115618220Y-92741400D01*
G75*
G02*
X115483220Y-92876400I-135000J0D01*
G01*
X115113220Y-92876400D01*
G75*
G02*
X114978220Y-92741400I0J135000D01*
G01*
X114978220Y-92471400D01*
G75*
G02*
X115113220Y-92336400I135000J0D01*
G01*
G37*
G04 #@! TD.AperFunction*
G04 #@! TA.AperFunction,SMDPad,CuDef*
G36*
G01*
X115483220Y-88971340D02*
X115113220Y-88971340D01*
G75*
G02*
X114978220Y-88836340I0J135000D01*
G01*
X114978220Y-88566340D01*
G75*
G02*
X115113220Y-88431340I135000J0D01*
G01*
X115483220Y-88431340D01*
G75*
G02*
X115618220Y-88566340I0J-135000D01*
G01*
X115618220Y-88836340D01*
G75*
G02*
X115483220Y-88971340I-135000J0D01*
G01*
G37*
G04 #@! TD.AperFunction*
G04 #@! TA.AperFunction,SMDPad,CuDef*
G36*
G01*
X115483220Y-87951340D02*
X115113220Y-87951340D01*
G75*
G02*
X114978220Y-87816340I0J135000D01*
G01*
X114978220Y-87546340D01*
G75*
G02*
X115113220Y-87411340I135000J0D01*
G01*
X115483220Y-87411340D01*
G75*
G02*
X115618220Y-87546340I0J-135000D01*
G01*
X115618220Y-87816340D01*
G75*
G02*
X115483220Y-87951340I-135000J0D01*
G01*
G37*
G04 #@! TD.AperFunction*
G04 #@! TA.AperFunction,SMDPad,CuDef*
G36*
G01*
X130068740Y-93356400D02*
X130438740Y-93356400D01*
G75*
G02*
X130573740Y-93491400I0J-135000D01*
G01*
X130573740Y-93761400D01*
G75*
G02*
X130438740Y-93896400I-135000J0D01*
G01*
X130068740Y-93896400D01*
G75*
G02*
X129933740Y-93761400I0J135000D01*
G01*
X129933740Y-93491400D01*
G75*
G02*
X130068740Y-93356400I135000J0D01*
G01*
G37*
G04 #@! TD.AperFunction*
G04 #@! TA.AperFunction,SMDPad,CuDef*
G36*
G01*
X130068740Y-92336400D02*
X130438740Y-92336400D01*
G75*
G02*
X130573740Y-92471400I0J-135000D01*
G01*
X130573740Y-92741400D01*
G75*
G02*
X130438740Y-92876400I-135000J0D01*
G01*
X130068740Y-92876400D01*
G75*
G02*
X129933740Y-92741400I0J135000D01*
G01*
X129933740Y-92471400D01*
G75*
G02*
X130068740Y-92336400I135000J0D01*
G01*
G37*
G04 #@! TD.AperFunction*
G04 #@! TA.AperFunction,SMDPad,CuDef*
G36*
G01*
X130438740Y-88971340D02*
X130068740Y-88971340D01*
G75*
G02*
X129933740Y-88836340I0J135000D01*
G01*
X129933740Y-88566340D01*
G75*
G02*
X130068740Y-88431340I135000J0D01*
G01*
X130438740Y-88431340D01*
G75*
G02*
X130573740Y-88566340I0J-135000D01*
G01*
X130573740Y-88836340D01*
G75*
G02*
X130438740Y-88971340I-135000J0D01*
G01*
G37*
G04 #@! TD.AperFunction*
G04 #@! TA.AperFunction,SMDPad,CuDef*
G36*
G01*
X130438740Y-87951340D02*
X130068740Y-87951340D01*
G75*
G02*
X129933740Y-87816340I0J135000D01*
G01*
X129933740Y-87546340D01*
G75*
G02*
X130068740Y-87411340I135000J0D01*
G01*
X130438740Y-87411340D01*
G75*
G02*
X130573740Y-87546340I0J-135000D01*
G01*
X130573740Y-87816340D01*
G75*
G02*
X130438740Y-87951340I-135000J0D01*
G01*
G37*
G04 #@! TD.AperFunction*
G04 #@! TA.AperFunction,SMDPad,CuDef*
G36*
G01*
X132513100Y-96370560D02*
X132513100Y-96740560D01*
G75*
G02*
X132378100Y-96875560I-135000J0D01*
G01*
X132108100Y-96875560D01*
G75*
G02*
X131973100Y-96740560I0J135000D01*
G01*
X131973100Y-96370560D01*
G75*
G02*
X132108100Y-96235560I135000J0D01*
G01*
X132378100Y-96235560D01*
G75*
G02*
X132513100Y-96370560I0J-135000D01*
G01*
G37*
G04 #@! TD.AperFunction*
G04 #@! TA.AperFunction,SMDPad,CuDef*
G36*
G01*
X133533100Y-96370560D02*
X133533100Y-96740560D01*
G75*
G02*
X133398100Y-96875560I-135000J0D01*
G01*
X133128100Y-96875560D01*
G75*
G02*
X132993100Y-96740560I0J135000D01*
G01*
X132993100Y-96370560D01*
G75*
G02*
X133128100Y-96235560I135000J0D01*
G01*
X133398100Y-96235560D01*
G75*
G02*
X133533100Y-96370560I0J-135000D01*
G01*
G37*
G04 #@! TD.AperFunction*
D19*
X129032000Y-88646000D03*
X130048000Y-91313000D03*
X114187940Y-88171320D03*
X114170460Y-93304360D03*
X120134380Y-88343740D03*
D20*
X127921320Y-89821320D03*
X118567020Y-93141620D03*
D19*
X131398980Y-92971320D03*
D21*
X131708390Y-87233290D02*
X131708390Y-85988390D01*
X131846420Y-87371320D02*
X131708390Y-87233290D01*
X132676420Y-87371320D02*
X131846420Y-87371320D01*
D22*
X113099361Y-94104361D02*
X114043361Y-94104361D01*
X112766320Y-93771320D02*
X113099361Y-94104361D01*
X114043361Y-94104361D02*
X114300000Y-94361000D01*
X122903940Y-89722920D02*
X122939540Y-89758520D01*
X120767020Y-89722920D02*
X122903940Y-89722920D01*
X112766320Y-88171320D02*
X114187940Y-88171320D01*
X114187940Y-88171320D02*
X114187940Y-88171320D01*
X112766320Y-92971320D02*
X113837420Y-92971320D01*
X113837420Y-92971320D02*
X114170460Y-93304360D01*
X114170460Y-93304360D02*
X114170460Y-93304360D01*
X120767020Y-89722920D02*
X120767020Y-88976380D01*
X120767020Y-88976380D02*
X120134380Y-88343740D01*
X120134380Y-88343740D02*
X120134380Y-88343740D01*
D21*
X112766320Y-89821320D02*
X111702280Y-89821320D01*
X111702280Y-89821320D02*
X111506000Y-90017600D01*
X111506000Y-90017600D02*
X111506000Y-90576400D01*
X111750920Y-90821320D02*
X112766320Y-90821320D01*
X111506000Y-90576400D02*
X111750920Y-90821320D01*
X118468620Y-89821320D02*
X118567020Y-89722920D01*
X112766320Y-89821320D02*
X118468620Y-89821320D01*
X119517020Y-89722920D02*
X119634000Y-89839900D01*
X118567020Y-89722920D02*
X119517020Y-89722920D01*
X119634000Y-89839900D02*
X119634000Y-92227400D01*
X119634000Y-92227400D02*
X120116600Y-92710000D01*
X120116600Y-92710000D02*
X126619000Y-92710000D01*
X126619000Y-92710000D02*
X129007680Y-90321320D01*
X131846420Y-91321320D02*
X131393120Y-90868020D01*
X132676420Y-91321320D02*
X131846420Y-91321320D01*
X131393120Y-90868020D02*
X131393120Y-90321320D01*
X131393120Y-90321320D02*
X132676420Y-90321320D01*
X129007680Y-90321320D02*
X131393120Y-90321320D01*
X112766320Y-90321320D02*
X113867120Y-90321320D01*
X113867120Y-90321320D02*
X114147600Y-90601800D01*
X114147600Y-90601800D02*
X114147600Y-91135200D01*
X113961480Y-91321320D02*
X112766320Y-91321320D01*
X114147600Y-91135200D02*
X113961480Y-91321320D01*
X118265420Y-91321320D02*
X118567020Y-91622920D01*
X113961480Y-91321320D02*
X118265420Y-91321320D01*
X132676420Y-90821320D02*
X133663880Y-90821320D01*
X133663880Y-90821320D02*
X133985000Y-90500200D01*
X133985000Y-90500200D02*
X133985000Y-90093800D01*
X133712520Y-89821320D02*
X132676420Y-89821320D01*
X133985000Y-90093800D02*
X133712520Y-89821320D01*
X132676420Y-89821320D02*
X127921320Y-89821320D01*
X127921320Y-89821320D02*
X127921320Y-89821320D01*
X118567020Y-91622920D02*
X118567020Y-93141620D01*
X118567020Y-93141620D02*
X118567020Y-93141620D01*
D22*
X126239540Y-89758520D02*
X126232920Y-89758520D01*
X121602500Y-85128100D02*
X121602500Y-82423000D01*
X126232920Y-89758520D02*
X121602500Y-85128100D01*
X112207580Y-94912580D02*
X112186320Y-94891320D01*
X112207580Y-96619060D02*
X112207580Y-94912580D01*
D21*
X114678240Y-89321320D02*
X115298220Y-88701340D01*
X112766320Y-89321320D02*
X114678240Y-89321320D01*
X112775680Y-91821320D02*
X112776000Y-91821000D01*
X112766320Y-91821320D02*
X112775680Y-91821320D01*
X115038139Y-92346319D02*
X115298220Y-92606400D01*
X112818719Y-92346319D02*
X115038139Y-92346319D01*
X112793720Y-92321320D02*
X112818719Y-92346319D01*
X112766320Y-92321320D02*
X112793720Y-92321320D01*
D22*
X132676420Y-92971320D02*
X131398980Y-92971320D01*
X131398980Y-92971320D02*
X131398980Y-92971320D01*
X132676420Y-88171320D02*
X131361480Y-88171320D01*
X131361480Y-88171320D02*
X131183380Y-87993220D01*
X131183380Y-87993220D02*
X131183380Y-86774020D01*
X131183380Y-86774020D02*
X130510280Y-86100920D01*
X130510280Y-86100920D02*
X126121160Y-86100920D01*
X124142500Y-84122260D02*
X124142500Y-82423000D01*
X126121160Y-86100920D02*
X124142500Y-84122260D01*
D21*
X130373720Y-88821320D02*
X132676420Y-88821320D01*
X130253740Y-88701340D02*
X130373720Y-88821320D01*
X131038820Y-91821320D02*
X132676420Y-91821320D01*
X130253740Y-92606400D02*
X131038820Y-91821320D01*
D22*
X133263100Y-94898000D02*
X133256420Y-94891320D01*
X133263100Y-96555560D02*
X133263100Y-94898000D01*
D23*
X111054000Y-82915039D02*
X111052428Y-82931000D01*
X111058703Y-82994711D01*
X111077287Y-83055974D01*
X111107465Y-83112434D01*
X111142218Y-83154779D01*
X111148079Y-83161921D01*
X111197566Y-83202535D01*
X111254026Y-83232713D01*
X111315289Y-83251297D01*
X111379000Y-83257572D01*
X111394960Y-83256000D01*
X113776040Y-83256000D01*
X113792000Y-83257572D01*
X113855711Y-83251297D01*
X113916974Y-83232713D01*
X113973434Y-83202535D01*
X114022921Y-83161921D01*
X114063535Y-83112434D01*
X114093713Y-83055974D01*
X114112297Y-82994711D01*
X114117000Y-82946961D01*
X114117000Y-82946960D01*
X114118572Y-82931000D01*
X114117000Y-82915039D01*
X114117000Y-82519681D01*
X117600638Y-82519681D01*
X117647589Y-82803018D01*
X117748913Y-83071752D01*
X117793293Y-83154779D01*
X118031543Y-83236168D01*
X118844711Y-82423000D01*
X119280289Y-82423000D01*
X120093457Y-83236168D01*
X120331707Y-83154779D01*
X120450083Y-82893109D01*
X120489642Y-82722993D01*
X120496694Y-82758443D01*
X120583384Y-82967729D01*
X120709237Y-83156082D01*
X120869418Y-83316263D01*
X121057771Y-83442116D01*
X121102501Y-83460644D01*
X121102500Y-85103540D01*
X121100081Y-85128100D01*
X121102500Y-85152659D01*
X121109735Y-85226116D01*
X121138325Y-85320366D01*
X121184754Y-85407229D01*
X121247236Y-85483364D01*
X121266324Y-85499029D01*
X125488089Y-89720796D01*
X125488089Y-90358520D01*
X125493881Y-90417330D01*
X125511036Y-90473880D01*
X125538893Y-90525997D01*
X125576382Y-90571678D01*
X125622063Y-90609167D01*
X125674180Y-90637024D01*
X125730730Y-90654179D01*
X125789540Y-90659971D01*
X126689540Y-90659971D01*
X126748350Y-90654179D01*
X126804900Y-90637024D01*
X126857017Y-90609167D01*
X126902698Y-90571678D01*
X126940187Y-90525997D01*
X126968044Y-90473880D01*
X126985199Y-90417330D01*
X126990991Y-90358520D01*
X126990991Y-89158520D01*
X126985199Y-89099710D01*
X126968044Y-89043160D01*
X126940187Y-88991043D01*
X126902698Y-88945362D01*
X126857017Y-88907873D01*
X126804900Y-88880016D01*
X126748350Y-88862861D01*
X126689540Y-88857069D01*
X126038576Y-88857069D01*
X124556847Y-87375340D01*
X129325740Y-87375340D01*
X129477740Y-87527340D01*
X130099740Y-87527340D01*
X130099740Y-86955340D01*
X129947740Y-86803340D01*
X129831878Y-86808950D01*
X129716315Y-86840397D01*
X129609107Y-86893785D01*
X129514375Y-86967062D01*
X129435758Y-87057413D01*
X129376279Y-87161365D01*
X129338223Y-87274923D01*
X129325740Y-87375340D01*
X124556847Y-87375340D01*
X122102500Y-84920995D01*
X122102500Y-83460644D01*
X122147229Y-83442116D01*
X122335582Y-83316263D01*
X122495763Y-83156082D01*
X122621616Y-82967729D01*
X122708306Y-82758443D01*
X122752500Y-82536265D01*
X122752500Y-82309735D01*
X122708306Y-82087557D01*
X122621616Y-81878271D01*
X122495763Y-81689918D01*
X122335582Y-81529737D01*
X122147229Y-81403884D01*
X121937943Y-81317194D01*
X121715765Y-81273000D01*
X121489235Y-81273000D01*
X121267057Y-81317194D01*
X121057771Y-81403884D01*
X120869418Y-81529737D01*
X120709237Y-81689918D01*
X120583384Y-81878271D01*
X120496694Y-82087557D01*
X120490204Y-82120184D01*
X120477411Y-82042982D01*
X120376087Y-81774248D01*
X120331707Y-81691221D01*
X120093457Y-81609832D01*
X119280289Y-82423000D01*
X118844711Y-82423000D01*
X118031543Y-81609832D01*
X117793293Y-81691221D01*
X117674917Y-81952891D01*
X117609866Y-82232628D01*
X117600638Y-82519681D01*
X114117000Y-82519681D01*
X114117000Y-80970000D01*
X118912339Y-80970000D01*
X118682482Y-81008089D01*
X118413748Y-81109413D01*
X118330721Y-81153793D01*
X118249332Y-81392043D01*
X119062500Y-82205211D01*
X119875668Y-81392043D01*
X119794279Y-81153793D01*
X119532609Y-81035417D01*
X119252872Y-80970366D01*
X119241487Y-80970000D01*
X126528498Y-80970000D01*
X126528498Y-81126110D01*
X126303590Y-81015097D01*
X126215361Y-81041854D01*
X125954889Y-81159527D01*
X125722378Y-81325754D01*
X125526764Y-81534148D01*
X125375565Y-81776700D01*
X125274591Y-82044089D01*
X125384649Y-82268998D01*
X125284397Y-82268998D01*
X125248306Y-82087557D01*
X125161616Y-81878271D01*
X125035763Y-81689918D01*
X124875582Y-81529737D01*
X124687229Y-81403884D01*
X124477943Y-81317194D01*
X124255765Y-81273000D01*
X124029235Y-81273000D01*
X123807057Y-81317194D01*
X123597771Y-81403884D01*
X123409418Y-81529737D01*
X123249237Y-81689918D01*
X123123384Y-81878271D01*
X123036694Y-82087557D01*
X122992500Y-82309735D01*
X122992500Y-82536265D01*
X123036694Y-82758443D01*
X123123384Y-82967729D01*
X123249237Y-83156082D01*
X123409418Y-83316263D01*
X123597771Y-83442116D01*
X123642500Y-83460644D01*
X123642500Y-84097700D01*
X123640081Y-84122260D01*
X123642500Y-84146819D01*
X123649735Y-84220276D01*
X123678325Y-84314526D01*
X123724754Y-84401389D01*
X123787236Y-84477524D01*
X123806324Y-84493189D01*
X125750239Y-86437106D01*
X125765896Y-86456184D01*
X125842031Y-86518666D01*
X125928893Y-86565095D01*
X126023143Y-86593685D01*
X126121160Y-86603339D01*
X126145720Y-86600920D01*
X130303175Y-86600920D01*
X130532667Y-86830413D01*
X130407740Y-86955340D01*
X130407740Y-87527340D01*
X130427740Y-87527340D01*
X130427740Y-87835340D01*
X130407740Y-87835340D01*
X130407740Y-87855340D01*
X130099740Y-87855340D01*
X130099740Y-87835340D01*
X129477740Y-87835340D01*
X129325740Y-87987340D01*
X129338223Y-88087757D01*
X129376279Y-88201315D01*
X129435758Y-88305267D01*
X129514375Y-88395618D01*
X129609107Y-88468895D01*
X129640354Y-88484455D01*
X129632289Y-88566340D01*
X129632289Y-88836340D01*
X129640675Y-88921487D01*
X129665512Y-89003363D01*
X129705844Y-89078819D01*
X129760123Y-89144957D01*
X129826261Y-89199236D01*
X129901717Y-89239568D01*
X129983593Y-89264405D01*
X130068740Y-89272791D01*
X130438740Y-89272791D01*
X130523887Y-89264405D01*
X130583505Y-89246320D01*
X131794969Y-89246320D01*
X131794969Y-89396320D01*
X128344848Y-89396320D01*
X128303798Y-89355270D01*
X128205527Y-89289607D01*
X128096334Y-89244378D01*
X127980415Y-89221320D01*
X127862225Y-89221320D01*
X127746306Y-89244378D01*
X127637113Y-89289607D01*
X127538842Y-89355270D01*
X127455270Y-89438842D01*
X127389607Y-89537113D01*
X127344378Y-89646306D01*
X127321320Y-89762225D01*
X127321320Y-89880415D01*
X127344378Y-89996334D01*
X127389607Y-90105527D01*
X127455270Y-90203798D01*
X127538842Y-90287370D01*
X127637113Y-90353033D01*
X127746306Y-90398262D01*
X127862225Y-90421320D01*
X127980415Y-90421320D01*
X128096334Y-90398262D01*
X128205527Y-90353033D01*
X128303798Y-90287370D01*
X128344848Y-90246320D01*
X128481640Y-90246320D01*
X126442960Y-92285000D01*
X122027030Y-92285000D01*
X122031457Y-92276717D01*
X122066223Y-92162109D01*
X122077962Y-92042920D01*
X122075020Y-91748920D01*
X121923020Y-91596920D01*
X120921020Y-91596920D01*
X120921020Y-91616920D01*
X120613020Y-91616920D01*
X120613020Y-91596920D01*
X120593020Y-91596920D01*
X120593020Y-91288920D01*
X120613020Y-91288920D01*
X120613020Y-91268920D01*
X120921020Y-91268920D01*
X120921020Y-91288920D01*
X121923020Y-91288920D01*
X122075020Y-91136920D01*
X122077962Y-90842920D01*
X122066223Y-90723731D01*
X122031457Y-90609123D01*
X121975000Y-90503499D01*
X121899021Y-90410919D01*
X121806441Y-90334940D01*
X121754895Y-90307388D01*
X121762679Y-90281730D01*
X121768471Y-90222920D01*
X122188089Y-90222920D01*
X122188089Y-90358520D01*
X122193881Y-90417330D01*
X122211036Y-90473880D01*
X122238893Y-90525997D01*
X122276382Y-90571678D01*
X122322063Y-90609167D01*
X122374180Y-90637024D01*
X122430730Y-90654179D01*
X122489540Y-90659971D01*
X123389540Y-90659971D01*
X123448350Y-90654179D01*
X123504900Y-90637024D01*
X123557017Y-90609167D01*
X123602698Y-90571678D01*
X123640187Y-90525997D01*
X123668044Y-90473880D01*
X123685199Y-90417330D01*
X123690991Y-90358520D01*
X123690991Y-89158520D01*
X123685199Y-89099710D01*
X123668044Y-89043160D01*
X123640187Y-88991043D01*
X123602698Y-88945362D01*
X123557017Y-88907873D01*
X123504900Y-88880016D01*
X123448350Y-88862861D01*
X123389540Y-88857069D01*
X122489540Y-88857069D01*
X122430730Y-88862861D01*
X122374180Y-88880016D01*
X122322063Y-88907873D01*
X122276382Y-88945362D01*
X122238893Y-88991043D01*
X122211036Y-89043160D01*
X122193881Y-89099710D01*
X122188089Y-89158520D01*
X122188089Y-89222920D01*
X121768471Y-89222920D01*
X121762679Y-89164110D01*
X121745524Y-89107560D01*
X121717667Y-89055443D01*
X121680178Y-89009762D01*
X121634497Y-88972273D01*
X121582380Y-88944416D01*
X121525830Y-88927261D01*
X121467020Y-88921469D01*
X121264031Y-88921469D01*
X121259785Y-88878363D01*
X121231195Y-88784113D01*
X121184766Y-88697251D01*
X121122284Y-88621116D01*
X121103201Y-88605455D01*
X120834380Y-88336634D01*
X120834380Y-88274796D01*
X120807479Y-88139558D01*
X120754712Y-88012166D01*
X120678106Y-87897516D01*
X120580604Y-87800014D01*
X120465954Y-87723408D01*
X120338562Y-87670641D01*
X120203324Y-87643740D01*
X120065436Y-87643740D01*
X119930198Y-87670641D01*
X119802806Y-87723408D01*
X119688156Y-87800014D01*
X119590654Y-87897516D01*
X119514048Y-88012166D01*
X119461281Y-88139558D01*
X119434380Y-88274796D01*
X119434380Y-88412684D01*
X119461281Y-88547922D01*
X119514048Y-88675314D01*
X119590654Y-88789964D01*
X119688156Y-88887466D01*
X119802806Y-88964072D01*
X119873736Y-88993452D01*
X119853862Y-89009762D01*
X119816373Y-89055443D01*
X119788516Y-89107560D01*
X119771361Y-89164110D01*
X119765569Y-89222920D01*
X119765569Y-89377101D01*
X119754280Y-89367836D01*
X119680447Y-89328372D01*
X119600334Y-89304070D01*
X119568471Y-89300932D01*
X119568471Y-89222920D01*
X119562679Y-89164110D01*
X119545524Y-89107560D01*
X119517667Y-89055443D01*
X119480178Y-89009762D01*
X119434497Y-88972273D01*
X119382380Y-88944416D01*
X119325830Y-88927261D01*
X119267020Y-88921469D01*
X117867020Y-88921469D01*
X117808210Y-88927261D01*
X117751660Y-88944416D01*
X117699543Y-88972273D01*
X117653862Y-89009762D01*
X117616373Y-89055443D01*
X117588516Y-89107560D01*
X117571361Y-89164110D01*
X117565569Y-89222920D01*
X117565569Y-89396320D01*
X115204280Y-89396320D01*
X115327810Y-89272791D01*
X115483220Y-89272791D01*
X115568367Y-89264405D01*
X115650243Y-89239568D01*
X115725699Y-89199236D01*
X115791837Y-89144957D01*
X115846116Y-89078819D01*
X115886448Y-89003363D01*
X115911285Y-88921487D01*
X115919671Y-88836340D01*
X115919671Y-88566340D01*
X115911606Y-88484455D01*
X115942853Y-88468895D01*
X116037585Y-88395618D01*
X116116202Y-88305267D01*
X116175681Y-88201315D01*
X116213737Y-88087757D01*
X116226220Y-87987340D01*
X116074220Y-87835340D01*
X115452220Y-87835340D01*
X115452220Y-87855340D01*
X115144220Y-87855340D01*
X115144220Y-87835340D01*
X115124220Y-87835340D01*
X115124220Y-87527340D01*
X115144220Y-87527340D01*
X115144220Y-86955340D01*
X115452220Y-86955340D01*
X115452220Y-87527340D01*
X116074220Y-87527340D01*
X116226220Y-87375340D01*
X116213737Y-87274923D01*
X116175681Y-87161365D01*
X116116202Y-87057413D01*
X116037585Y-86967062D01*
X115942853Y-86893785D01*
X115835645Y-86840397D01*
X115720082Y-86808950D01*
X115604220Y-86803340D01*
X115452220Y-86955340D01*
X115144220Y-86955340D01*
X114992220Y-86803340D01*
X114876358Y-86808950D01*
X114760795Y-86840397D01*
X114653587Y-86893785D01*
X114558855Y-86967062D01*
X114480238Y-87057413D01*
X114420759Y-87161365D01*
X114382703Y-87274923D01*
X114370220Y-87375340D01*
X114522218Y-87527338D01*
X114462417Y-87527338D01*
X114392122Y-87498221D01*
X114256884Y-87471320D01*
X114118996Y-87471320D01*
X113983758Y-87498221D01*
X113856366Y-87550988D01*
X113839355Y-87562355D01*
X113802320Y-87525320D01*
X112920320Y-87525320D01*
X112920320Y-87545320D01*
X112612320Y-87545320D01*
X112612320Y-87525320D01*
X112592320Y-87525320D01*
X112592320Y-87217320D01*
X112612320Y-87217320D01*
X112612320Y-87197320D01*
X112920320Y-87197320D01*
X112920320Y-87217320D01*
X113802320Y-87217320D01*
X113954320Y-87065320D01*
X113945115Y-86950098D01*
X113909960Y-86835608D01*
X113853145Y-86730177D01*
X113776853Y-86637855D01*
X113684015Y-86562191D01*
X113578201Y-86506093D01*
X113463475Y-86471716D01*
X113453498Y-86470768D01*
X113475467Y-86398346D01*
X113489948Y-86251320D01*
X113475467Y-86104294D01*
X113432581Y-85962919D01*
X113362939Y-85832627D01*
X113269215Y-85718425D01*
X113155013Y-85624701D01*
X113024721Y-85555059D01*
X112883346Y-85512173D01*
X112773155Y-85501320D01*
X111599485Y-85501320D01*
X111489294Y-85512173D01*
X111347919Y-85555059D01*
X111217627Y-85624701D01*
X111103425Y-85718425D01*
X111009701Y-85832627D01*
X110940059Y-85962919D01*
X110897173Y-86104294D01*
X110882692Y-86251320D01*
X110897173Y-86398346D01*
X110940059Y-86539721D01*
X111009701Y-86670013D01*
X111103425Y-86784215D01*
X111217627Y-86877939D01*
X111347919Y-86947581D01*
X111489294Y-86990467D01*
X111583558Y-86999751D01*
X111578320Y-87065320D01*
X111603098Y-87090098D01*
X111531306Y-87104378D01*
X111422113Y-87149607D01*
X111323842Y-87215270D01*
X111240270Y-87298842D01*
X111174607Y-87397113D01*
X111129378Y-87506306D01*
X111106320Y-87622225D01*
X111106320Y-87740415D01*
X111129378Y-87856334D01*
X111174607Y-87965527D01*
X111240270Y-88063798D01*
X111323842Y-88147370D01*
X111422113Y-88213033D01*
X111531306Y-88258262D01*
X111647225Y-88281320D01*
X111765415Y-88281320D01*
X111881334Y-88258262D01*
X111884869Y-88256798D01*
X111884869Y-88471320D01*
X111890661Y-88530130D01*
X111903156Y-88571320D01*
X111890661Y-88612510D01*
X111884869Y-88671320D01*
X111884869Y-88971320D01*
X111890661Y-89030130D01*
X111903156Y-89071320D01*
X111890661Y-89112510D01*
X111884869Y-89171320D01*
X111884869Y-89396320D01*
X111723147Y-89396320D01*
X111702280Y-89394265D01*
X111681413Y-89396320D01*
X111681406Y-89396320D01*
X111626607Y-89401717D01*
X111618965Y-89402470D01*
X111538852Y-89426772D01*
X111519779Y-89436967D01*
X111465020Y-89466236D01*
X111400306Y-89519346D01*
X111386996Y-89535564D01*
X111220244Y-89702316D01*
X111204026Y-89715626D01*
X111150916Y-89780341D01*
X111111452Y-89854174D01*
X111099730Y-89892816D01*
X111088338Y-89930372D01*
X111087150Y-89934287D01*
X111081000Y-89996727D01*
X111081000Y-89996733D01*
X111078945Y-90017600D01*
X111081000Y-90038467D01*
X111081001Y-90555524D01*
X111078945Y-90576400D01*
X111087150Y-90659714D01*
X111101842Y-90708145D01*
X111111453Y-90739827D01*
X111150917Y-90813660D01*
X111204027Y-90878374D01*
X111220239Y-90891679D01*
X111435636Y-91107076D01*
X111448946Y-91123294D01*
X111513660Y-91176404D01*
X111587493Y-91215868D01*
X111643303Y-91232798D01*
X111667605Y-91240170D01*
X111676018Y-91240999D01*
X111730046Y-91246320D01*
X111730052Y-91246320D01*
X111750919Y-91248375D01*
X111771786Y-91246320D01*
X111884869Y-91246320D01*
X111884869Y-91471320D01*
X111890661Y-91530130D01*
X111903156Y-91571320D01*
X111890661Y-91612510D01*
X111884869Y-91671320D01*
X111884869Y-91971320D01*
X111890661Y-92030130D01*
X111903156Y-92071320D01*
X111890661Y-92112510D01*
X111884869Y-92171320D01*
X111884869Y-92471320D01*
X111890661Y-92530130D01*
X111903156Y-92571320D01*
X111890661Y-92612510D01*
X111884869Y-92671320D01*
X111884869Y-92885842D01*
X111881334Y-92884378D01*
X111765415Y-92861320D01*
X111647225Y-92861320D01*
X111531306Y-92884378D01*
X111422113Y-92929607D01*
X111323842Y-92995270D01*
X111240270Y-93078842D01*
X111174607Y-93177113D01*
X111129378Y-93286306D01*
X111106320Y-93402225D01*
X111106320Y-93520415D01*
X111129378Y-93636334D01*
X111174607Y-93745527D01*
X111240270Y-93843798D01*
X111323842Y-93927370D01*
X111422113Y-93993033D01*
X111531306Y-94038262D01*
X111603098Y-94052542D01*
X111578320Y-94077320D01*
X111583558Y-94142889D01*
X111489294Y-94152173D01*
X111347919Y-94195059D01*
X111217627Y-94264701D01*
X111103425Y-94358425D01*
X111009701Y-94472627D01*
X110940059Y-94602919D01*
X110897173Y-94744294D01*
X110882692Y-94891320D01*
X110897173Y-95038346D01*
X110940059Y-95179721D01*
X111009701Y-95310013D01*
X111103425Y-95424215D01*
X111217627Y-95517939D01*
X111347919Y-95587581D01*
X111489294Y-95630467D01*
X111599485Y-95641320D01*
X111707581Y-95641320D01*
X111707580Y-96195517D01*
X111669352Y-96267037D01*
X111644515Y-96348913D01*
X111636129Y-96434060D01*
X111636129Y-96804060D01*
X111644515Y-96889207D01*
X111669352Y-96971083D01*
X111709684Y-97046539D01*
X111763963Y-97112677D01*
X111830101Y-97166956D01*
X111905557Y-97207288D01*
X111987433Y-97232125D01*
X112072580Y-97240511D01*
X112342580Y-97240511D01*
X112424465Y-97232446D01*
X112440025Y-97263693D01*
X112513302Y-97358425D01*
X112603653Y-97437042D01*
X112652515Y-97465000D01*
X107881938Y-97465000D01*
X107876658Y-97461385D01*
X107809389Y-97432554D01*
X107737801Y-97417338D01*
X107732594Y-97416790D01*
X107423839Y-97386516D01*
X107162042Y-97307475D01*
X106920588Y-97179092D01*
X106708665Y-97006251D01*
X106534349Y-96795539D01*
X106404285Y-96554990D01*
X106323418Y-96293755D01*
X106290989Y-95985215D01*
X106289842Y-95979629D01*
X106285603Y-95937888D01*
X106264208Y-95867899D01*
X106243000Y-95828344D01*
X106243000Y-94891320D01*
X106862692Y-94891320D01*
X106877173Y-95038346D01*
X106920059Y-95179721D01*
X106989701Y-95310013D01*
X107083425Y-95424215D01*
X107197627Y-95517939D01*
X107327919Y-95587581D01*
X107469294Y-95630467D01*
X107579485Y-95641320D01*
X108453155Y-95641320D01*
X108563346Y-95630467D01*
X108704721Y-95587581D01*
X108835013Y-95517939D01*
X108949215Y-95424215D01*
X109042939Y-95310013D01*
X109112581Y-95179721D01*
X109155467Y-95038346D01*
X109169948Y-94891320D01*
X109155467Y-94744294D01*
X109112581Y-94602919D01*
X109042939Y-94472627D01*
X108949215Y-94358425D01*
X108835013Y-94264701D01*
X108704721Y-94195059D01*
X108563346Y-94152173D01*
X108453155Y-94141320D01*
X107579485Y-94141320D01*
X107469294Y-94152173D01*
X107327919Y-94195059D01*
X107197627Y-94264701D01*
X107083425Y-94358425D01*
X106989701Y-94472627D01*
X106920059Y-94602919D01*
X106877173Y-94744294D01*
X106862692Y-94891320D01*
X106243000Y-94891320D01*
X106243000Y-86251320D01*
X106862692Y-86251320D01*
X106877173Y-86398346D01*
X106920059Y-86539721D01*
X106989701Y-86670013D01*
X107083425Y-86784215D01*
X107197627Y-86877939D01*
X107327919Y-86947581D01*
X107469294Y-86990467D01*
X107579485Y-87001320D01*
X108453155Y-87001320D01*
X108563346Y-86990467D01*
X108704721Y-86947581D01*
X108835013Y-86877939D01*
X108949215Y-86784215D01*
X109042939Y-86670013D01*
X109112581Y-86539721D01*
X109155467Y-86398346D01*
X109169948Y-86251320D01*
X109155467Y-86104294D01*
X109112581Y-85962919D01*
X109042939Y-85832627D01*
X108949215Y-85718425D01*
X108835013Y-85624701D01*
X108704721Y-85555059D01*
X108563346Y-85512173D01*
X108453155Y-85501320D01*
X107579485Y-85501320D01*
X107469294Y-85512173D01*
X107327919Y-85555059D01*
X107197627Y-85624701D01*
X107083425Y-85718425D01*
X106989701Y-85832627D01*
X106920059Y-85962919D01*
X106877173Y-86104294D01*
X106862692Y-86251320D01*
X106243000Y-86251320D01*
X106243000Y-83453957D01*
X118249332Y-83453957D01*
X118330721Y-83692207D01*
X118592391Y-83810583D01*
X118872128Y-83875634D01*
X119159181Y-83884862D01*
X119442518Y-83837911D01*
X119711252Y-83736587D01*
X119794279Y-83692207D01*
X119875668Y-83453957D01*
X119062500Y-82640789D01*
X118249332Y-83453957D01*
X106243000Y-83453957D01*
X106243000Y-82608938D01*
X106246615Y-82603658D01*
X106275446Y-82536389D01*
X106290662Y-82464801D01*
X106291210Y-82459594D01*
X106321484Y-82150840D01*
X106400525Y-81889042D01*
X106528907Y-81647590D01*
X106701747Y-81435667D01*
X106912460Y-81261349D01*
X107153016Y-81131282D01*
X107414246Y-81050418D01*
X107722785Y-81017989D01*
X107728371Y-81016842D01*
X107770112Y-81012603D01*
X107840101Y-80991208D01*
X107879656Y-80970000D01*
X111054001Y-80970000D01*
X111054000Y-82915039D01*
G04 #@! TA.AperFunction,Conductor*
D24*
G36*
X111054000Y-82915039D02*
G01*
X111052428Y-82931000D01*
X111058703Y-82994711D01*
X111077287Y-83055974D01*
X111107465Y-83112434D01*
X111142218Y-83154779D01*
X111148079Y-83161921D01*
X111197566Y-83202535D01*
X111254026Y-83232713D01*
X111315289Y-83251297D01*
X111379000Y-83257572D01*
X111394960Y-83256000D01*
X113776040Y-83256000D01*
X113792000Y-83257572D01*
X113855711Y-83251297D01*
X113916974Y-83232713D01*
X113973434Y-83202535D01*
X114022921Y-83161921D01*
X114063535Y-83112434D01*
X114093713Y-83055974D01*
X114112297Y-82994711D01*
X114117000Y-82946961D01*
X114117000Y-82946960D01*
X114118572Y-82931000D01*
X114117000Y-82915039D01*
X114117000Y-82519681D01*
X117600638Y-82519681D01*
X117647589Y-82803018D01*
X117748913Y-83071752D01*
X117793293Y-83154779D01*
X118031543Y-83236168D01*
X118844711Y-82423000D01*
X119280289Y-82423000D01*
X120093457Y-83236168D01*
X120331707Y-83154779D01*
X120450083Y-82893109D01*
X120489642Y-82722993D01*
X120496694Y-82758443D01*
X120583384Y-82967729D01*
X120709237Y-83156082D01*
X120869418Y-83316263D01*
X121057771Y-83442116D01*
X121102501Y-83460644D01*
X121102500Y-85103540D01*
X121100081Y-85128100D01*
X121102500Y-85152659D01*
X121109735Y-85226116D01*
X121138325Y-85320366D01*
X121184754Y-85407229D01*
X121247236Y-85483364D01*
X121266324Y-85499029D01*
X125488089Y-89720796D01*
X125488089Y-90358520D01*
X125493881Y-90417330D01*
X125511036Y-90473880D01*
X125538893Y-90525997D01*
X125576382Y-90571678D01*
X125622063Y-90609167D01*
X125674180Y-90637024D01*
X125730730Y-90654179D01*
X125789540Y-90659971D01*
X126689540Y-90659971D01*
X126748350Y-90654179D01*
X126804900Y-90637024D01*
X126857017Y-90609167D01*
X126902698Y-90571678D01*
X126940187Y-90525997D01*
X126968044Y-90473880D01*
X126985199Y-90417330D01*
X126990991Y-90358520D01*
X126990991Y-89158520D01*
X126985199Y-89099710D01*
X126968044Y-89043160D01*
X126940187Y-88991043D01*
X126902698Y-88945362D01*
X126857017Y-88907873D01*
X126804900Y-88880016D01*
X126748350Y-88862861D01*
X126689540Y-88857069D01*
X126038576Y-88857069D01*
X124556847Y-87375340D01*
X129325740Y-87375340D01*
X129477740Y-87527340D01*
X130099740Y-87527340D01*
X130099740Y-86955340D01*
X129947740Y-86803340D01*
X129831878Y-86808950D01*
X129716315Y-86840397D01*
X129609107Y-86893785D01*
X129514375Y-86967062D01*
X129435758Y-87057413D01*
X129376279Y-87161365D01*
X129338223Y-87274923D01*
X129325740Y-87375340D01*
X124556847Y-87375340D01*
X122102500Y-84920995D01*
X122102500Y-83460644D01*
X122147229Y-83442116D01*
X122335582Y-83316263D01*
X122495763Y-83156082D01*
X122621616Y-82967729D01*
X122708306Y-82758443D01*
X122752500Y-82536265D01*
X122752500Y-82309735D01*
X122708306Y-82087557D01*
X122621616Y-81878271D01*
X122495763Y-81689918D01*
X122335582Y-81529737D01*
X122147229Y-81403884D01*
X121937943Y-81317194D01*
X121715765Y-81273000D01*
X121489235Y-81273000D01*
X121267057Y-81317194D01*
X121057771Y-81403884D01*
X120869418Y-81529737D01*
X120709237Y-81689918D01*
X120583384Y-81878271D01*
X120496694Y-82087557D01*
X120490204Y-82120184D01*
X120477411Y-82042982D01*
X120376087Y-81774248D01*
X120331707Y-81691221D01*
X120093457Y-81609832D01*
X119280289Y-82423000D01*
X118844711Y-82423000D01*
X118031543Y-81609832D01*
X117793293Y-81691221D01*
X117674917Y-81952891D01*
X117609866Y-82232628D01*
X117600638Y-82519681D01*
X114117000Y-82519681D01*
X114117000Y-80970000D01*
X118912339Y-80970000D01*
X118682482Y-81008089D01*
X118413748Y-81109413D01*
X118330721Y-81153793D01*
X118249332Y-81392043D01*
X119062500Y-82205211D01*
X119875668Y-81392043D01*
X119794279Y-81153793D01*
X119532609Y-81035417D01*
X119252872Y-80970366D01*
X119241487Y-80970000D01*
X126528498Y-80970000D01*
X126528498Y-81126110D01*
X126303590Y-81015097D01*
X126215361Y-81041854D01*
X125954889Y-81159527D01*
X125722378Y-81325754D01*
X125526764Y-81534148D01*
X125375565Y-81776700D01*
X125274591Y-82044089D01*
X125384649Y-82268998D01*
X125284397Y-82268998D01*
X125248306Y-82087557D01*
X125161616Y-81878271D01*
X125035763Y-81689918D01*
X124875582Y-81529737D01*
X124687229Y-81403884D01*
X124477943Y-81317194D01*
X124255765Y-81273000D01*
X124029235Y-81273000D01*
X123807057Y-81317194D01*
X123597771Y-81403884D01*
X123409418Y-81529737D01*
X123249237Y-81689918D01*
X123123384Y-81878271D01*
X123036694Y-82087557D01*
X122992500Y-82309735D01*
X122992500Y-82536265D01*
X123036694Y-82758443D01*
X123123384Y-82967729D01*
X123249237Y-83156082D01*
X123409418Y-83316263D01*
X123597771Y-83442116D01*
X123642500Y-83460644D01*
X123642500Y-84097700D01*
X123640081Y-84122260D01*
X123642500Y-84146819D01*
X123649735Y-84220276D01*
X123678325Y-84314526D01*
X123724754Y-84401389D01*
X123787236Y-84477524D01*
X123806324Y-84493189D01*
X125750239Y-86437106D01*
X125765896Y-86456184D01*
X125842031Y-86518666D01*
X125928893Y-86565095D01*
X126023143Y-86593685D01*
X126121160Y-86603339D01*
X126145720Y-86600920D01*
X130303175Y-86600920D01*
X130532667Y-86830413D01*
X130407740Y-86955340D01*
X130407740Y-87527340D01*
X130427740Y-87527340D01*
X130427740Y-87835340D01*
X130407740Y-87835340D01*
X130407740Y-87855340D01*
X130099740Y-87855340D01*
X130099740Y-87835340D01*
X129477740Y-87835340D01*
X129325740Y-87987340D01*
X129338223Y-88087757D01*
X129376279Y-88201315D01*
X129435758Y-88305267D01*
X129514375Y-88395618D01*
X129609107Y-88468895D01*
X129640354Y-88484455D01*
X129632289Y-88566340D01*
X129632289Y-88836340D01*
X129640675Y-88921487D01*
X129665512Y-89003363D01*
X129705844Y-89078819D01*
X129760123Y-89144957D01*
X129826261Y-89199236D01*
X129901717Y-89239568D01*
X129983593Y-89264405D01*
X130068740Y-89272791D01*
X130438740Y-89272791D01*
X130523887Y-89264405D01*
X130583505Y-89246320D01*
X131794969Y-89246320D01*
X131794969Y-89396320D01*
X128344848Y-89396320D01*
X128303798Y-89355270D01*
X128205527Y-89289607D01*
X128096334Y-89244378D01*
X127980415Y-89221320D01*
X127862225Y-89221320D01*
X127746306Y-89244378D01*
X127637113Y-89289607D01*
X127538842Y-89355270D01*
X127455270Y-89438842D01*
X127389607Y-89537113D01*
X127344378Y-89646306D01*
X127321320Y-89762225D01*
X127321320Y-89880415D01*
X127344378Y-89996334D01*
X127389607Y-90105527D01*
X127455270Y-90203798D01*
X127538842Y-90287370D01*
X127637113Y-90353033D01*
X127746306Y-90398262D01*
X127862225Y-90421320D01*
X127980415Y-90421320D01*
X128096334Y-90398262D01*
X128205527Y-90353033D01*
X128303798Y-90287370D01*
X128344848Y-90246320D01*
X128481640Y-90246320D01*
X126442960Y-92285000D01*
X122027030Y-92285000D01*
X122031457Y-92276717D01*
X122066223Y-92162109D01*
X122077962Y-92042920D01*
X122075020Y-91748920D01*
X121923020Y-91596920D01*
X120921020Y-91596920D01*
X120921020Y-91616920D01*
X120613020Y-91616920D01*
X120613020Y-91596920D01*
X120593020Y-91596920D01*
X120593020Y-91288920D01*
X120613020Y-91288920D01*
X120613020Y-91268920D01*
X120921020Y-91268920D01*
X120921020Y-91288920D01*
X121923020Y-91288920D01*
X122075020Y-91136920D01*
X122077962Y-90842920D01*
X122066223Y-90723731D01*
X122031457Y-90609123D01*
X121975000Y-90503499D01*
X121899021Y-90410919D01*
X121806441Y-90334940D01*
X121754895Y-90307388D01*
X121762679Y-90281730D01*
X121768471Y-90222920D01*
X122188089Y-90222920D01*
X122188089Y-90358520D01*
X122193881Y-90417330D01*
X122211036Y-90473880D01*
X122238893Y-90525997D01*
X122276382Y-90571678D01*
X122322063Y-90609167D01*
X122374180Y-90637024D01*
X122430730Y-90654179D01*
X122489540Y-90659971D01*
X123389540Y-90659971D01*
X123448350Y-90654179D01*
X123504900Y-90637024D01*
X123557017Y-90609167D01*
X123602698Y-90571678D01*
X123640187Y-90525997D01*
X123668044Y-90473880D01*
X123685199Y-90417330D01*
X123690991Y-90358520D01*
X123690991Y-89158520D01*
X123685199Y-89099710D01*
X123668044Y-89043160D01*
X123640187Y-88991043D01*
X123602698Y-88945362D01*
X123557017Y-88907873D01*
X123504900Y-88880016D01*
X123448350Y-88862861D01*
X123389540Y-88857069D01*
X122489540Y-88857069D01*
X122430730Y-88862861D01*
X122374180Y-88880016D01*
X122322063Y-88907873D01*
X122276382Y-88945362D01*
X122238893Y-88991043D01*
X122211036Y-89043160D01*
X122193881Y-89099710D01*
X122188089Y-89158520D01*
X122188089Y-89222920D01*
X121768471Y-89222920D01*
X121762679Y-89164110D01*
X121745524Y-89107560D01*
X121717667Y-89055443D01*
X121680178Y-89009762D01*
X121634497Y-88972273D01*
X121582380Y-88944416D01*
X121525830Y-88927261D01*
X121467020Y-88921469D01*
X121264031Y-88921469D01*
X121259785Y-88878363D01*
X121231195Y-88784113D01*
X121184766Y-88697251D01*
X121122284Y-88621116D01*
X121103201Y-88605455D01*
X120834380Y-88336634D01*
X120834380Y-88274796D01*
X120807479Y-88139558D01*
X120754712Y-88012166D01*
X120678106Y-87897516D01*
X120580604Y-87800014D01*
X120465954Y-87723408D01*
X120338562Y-87670641D01*
X120203324Y-87643740D01*
X120065436Y-87643740D01*
X119930198Y-87670641D01*
X119802806Y-87723408D01*
X119688156Y-87800014D01*
X119590654Y-87897516D01*
X119514048Y-88012166D01*
X119461281Y-88139558D01*
X119434380Y-88274796D01*
X119434380Y-88412684D01*
X119461281Y-88547922D01*
X119514048Y-88675314D01*
X119590654Y-88789964D01*
X119688156Y-88887466D01*
X119802806Y-88964072D01*
X119873736Y-88993452D01*
X119853862Y-89009762D01*
X119816373Y-89055443D01*
X119788516Y-89107560D01*
X119771361Y-89164110D01*
X119765569Y-89222920D01*
X119765569Y-89377101D01*
X119754280Y-89367836D01*
X119680447Y-89328372D01*
X119600334Y-89304070D01*
X119568471Y-89300932D01*
X119568471Y-89222920D01*
X119562679Y-89164110D01*
X119545524Y-89107560D01*
X119517667Y-89055443D01*
X119480178Y-89009762D01*
X119434497Y-88972273D01*
X119382380Y-88944416D01*
X119325830Y-88927261D01*
X119267020Y-88921469D01*
X117867020Y-88921469D01*
X117808210Y-88927261D01*
X117751660Y-88944416D01*
X117699543Y-88972273D01*
X117653862Y-89009762D01*
X117616373Y-89055443D01*
X117588516Y-89107560D01*
X117571361Y-89164110D01*
X117565569Y-89222920D01*
X117565569Y-89396320D01*
X115204280Y-89396320D01*
X115327810Y-89272791D01*
X115483220Y-89272791D01*
X115568367Y-89264405D01*
X115650243Y-89239568D01*
X115725699Y-89199236D01*
X115791837Y-89144957D01*
X115846116Y-89078819D01*
X115886448Y-89003363D01*
X115911285Y-88921487D01*
X115919671Y-88836340D01*
X115919671Y-88566340D01*
X115911606Y-88484455D01*
X115942853Y-88468895D01*
X116037585Y-88395618D01*
X116116202Y-88305267D01*
X116175681Y-88201315D01*
X116213737Y-88087757D01*
X116226220Y-87987340D01*
X116074220Y-87835340D01*
X115452220Y-87835340D01*
X115452220Y-87855340D01*
X115144220Y-87855340D01*
X115144220Y-87835340D01*
X115124220Y-87835340D01*
X115124220Y-87527340D01*
X115144220Y-87527340D01*
X115144220Y-86955340D01*
X115452220Y-86955340D01*
X115452220Y-87527340D01*
X116074220Y-87527340D01*
X116226220Y-87375340D01*
X116213737Y-87274923D01*
X116175681Y-87161365D01*
X116116202Y-87057413D01*
X116037585Y-86967062D01*
X115942853Y-86893785D01*
X115835645Y-86840397D01*
X115720082Y-86808950D01*
X115604220Y-86803340D01*
X115452220Y-86955340D01*
X115144220Y-86955340D01*
X114992220Y-86803340D01*
X114876358Y-86808950D01*
X114760795Y-86840397D01*
X114653587Y-86893785D01*
X114558855Y-86967062D01*
X114480238Y-87057413D01*
X114420759Y-87161365D01*
X114382703Y-87274923D01*
X114370220Y-87375340D01*
X114522218Y-87527338D01*
X114462417Y-87527338D01*
X114392122Y-87498221D01*
X114256884Y-87471320D01*
X114118996Y-87471320D01*
X113983758Y-87498221D01*
X113856366Y-87550988D01*
X113839355Y-87562355D01*
X113802320Y-87525320D01*
X112920320Y-87525320D01*
X112920320Y-87545320D01*
X112612320Y-87545320D01*
X112612320Y-87525320D01*
X112592320Y-87525320D01*
X112592320Y-87217320D01*
X112612320Y-87217320D01*
X112612320Y-87197320D01*
X112920320Y-87197320D01*
X112920320Y-87217320D01*
X113802320Y-87217320D01*
X113954320Y-87065320D01*
X113945115Y-86950098D01*
X113909960Y-86835608D01*
X113853145Y-86730177D01*
X113776853Y-86637855D01*
X113684015Y-86562191D01*
X113578201Y-86506093D01*
X113463475Y-86471716D01*
X113453498Y-86470768D01*
X113475467Y-86398346D01*
X113489948Y-86251320D01*
X113475467Y-86104294D01*
X113432581Y-85962919D01*
X113362939Y-85832627D01*
X113269215Y-85718425D01*
X113155013Y-85624701D01*
X113024721Y-85555059D01*
X112883346Y-85512173D01*
X112773155Y-85501320D01*
X111599485Y-85501320D01*
X111489294Y-85512173D01*
X111347919Y-85555059D01*
X111217627Y-85624701D01*
X111103425Y-85718425D01*
X111009701Y-85832627D01*
X110940059Y-85962919D01*
X110897173Y-86104294D01*
X110882692Y-86251320D01*
X110897173Y-86398346D01*
X110940059Y-86539721D01*
X111009701Y-86670013D01*
X111103425Y-86784215D01*
X111217627Y-86877939D01*
X111347919Y-86947581D01*
X111489294Y-86990467D01*
X111583558Y-86999751D01*
X111578320Y-87065320D01*
X111603098Y-87090098D01*
X111531306Y-87104378D01*
X111422113Y-87149607D01*
X111323842Y-87215270D01*
X111240270Y-87298842D01*
X111174607Y-87397113D01*
X111129378Y-87506306D01*
X111106320Y-87622225D01*
X111106320Y-87740415D01*
X111129378Y-87856334D01*
X111174607Y-87965527D01*
X111240270Y-88063798D01*
X111323842Y-88147370D01*
X111422113Y-88213033D01*
X111531306Y-88258262D01*
X111647225Y-88281320D01*
X111765415Y-88281320D01*
X111881334Y-88258262D01*
X111884869Y-88256798D01*
X111884869Y-88471320D01*
X111890661Y-88530130D01*
X111903156Y-88571320D01*
X111890661Y-88612510D01*
X111884869Y-88671320D01*
X111884869Y-88971320D01*
X111890661Y-89030130D01*
X111903156Y-89071320D01*
X111890661Y-89112510D01*
X111884869Y-89171320D01*
X111884869Y-89396320D01*
X111723147Y-89396320D01*
X111702280Y-89394265D01*
X111681413Y-89396320D01*
X111681406Y-89396320D01*
X111626607Y-89401717D01*
X111618965Y-89402470D01*
X111538852Y-89426772D01*
X111519779Y-89436967D01*
X111465020Y-89466236D01*
X111400306Y-89519346D01*
X111386996Y-89535564D01*
X111220244Y-89702316D01*
X111204026Y-89715626D01*
X111150916Y-89780341D01*
X111111452Y-89854174D01*
X111099730Y-89892816D01*
X111088338Y-89930372D01*
X111087150Y-89934287D01*
X111081000Y-89996727D01*
X111081000Y-89996733D01*
X111078945Y-90017600D01*
X111081000Y-90038467D01*
X111081001Y-90555524D01*
X111078945Y-90576400D01*
X111087150Y-90659714D01*
X111101842Y-90708145D01*
X111111453Y-90739827D01*
X111150917Y-90813660D01*
X111204027Y-90878374D01*
X111220239Y-90891679D01*
X111435636Y-91107076D01*
X111448946Y-91123294D01*
X111513660Y-91176404D01*
X111587493Y-91215868D01*
X111643303Y-91232798D01*
X111667605Y-91240170D01*
X111676018Y-91240999D01*
X111730046Y-91246320D01*
X111730052Y-91246320D01*
X111750919Y-91248375D01*
X111771786Y-91246320D01*
X111884869Y-91246320D01*
X111884869Y-91471320D01*
X111890661Y-91530130D01*
X111903156Y-91571320D01*
X111890661Y-91612510D01*
X111884869Y-91671320D01*
X111884869Y-91971320D01*
X111890661Y-92030130D01*
X111903156Y-92071320D01*
X111890661Y-92112510D01*
X111884869Y-92171320D01*
X111884869Y-92471320D01*
X111890661Y-92530130D01*
X111903156Y-92571320D01*
X111890661Y-92612510D01*
X111884869Y-92671320D01*
X111884869Y-92885842D01*
X111881334Y-92884378D01*
X111765415Y-92861320D01*
X111647225Y-92861320D01*
X111531306Y-92884378D01*
X111422113Y-92929607D01*
X111323842Y-92995270D01*
X111240270Y-93078842D01*
X111174607Y-93177113D01*
X111129378Y-93286306D01*
X111106320Y-93402225D01*
X111106320Y-93520415D01*
X111129378Y-93636334D01*
X111174607Y-93745527D01*
X111240270Y-93843798D01*
X111323842Y-93927370D01*
X111422113Y-93993033D01*
X111531306Y-94038262D01*
X111603098Y-94052542D01*
X111578320Y-94077320D01*
X111583558Y-94142889D01*
X111489294Y-94152173D01*
X111347919Y-94195059D01*
X111217627Y-94264701D01*
X111103425Y-94358425D01*
X111009701Y-94472627D01*
X110940059Y-94602919D01*
X110897173Y-94744294D01*
X110882692Y-94891320D01*
X110897173Y-95038346D01*
X110940059Y-95179721D01*
X111009701Y-95310013D01*
X111103425Y-95424215D01*
X111217627Y-95517939D01*
X111347919Y-95587581D01*
X111489294Y-95630467D01*
X111599485Y-95641320D01*
X111707581Y-95641320D01*
X111707580Y-96195517D01*
X111669352Y-96267037D01*
X111644515Y-96348913D01*
X111636129Y-96434060D01*
X111636129Y-96804060D01*
X111644515Y-96889207D01*
X111669352Y-96971083D01*
X111709684Y-97046539D01*
X111763963Y-97112677D01*
X111830101Y-97166956D01*
X111905557Y-97207288D01*
X111987433Y-97232125D01*
X112072580Y-97240511D01*
X112342580Y-97240511D01*
X112424465Y-97232446D01*
X112440025Y-97263693D01*
X112513302Y-97358425D01*
X112603653Y-97437042D01*
X112652515Y-97465000D01*
X107881938Y-97465000D01*
X107876658Y-97461385D01*
X107809389Y-97432554D01*
X107737801Y-97417338D01*
X107732594Y-97416790D01*
X107423839Y-97386516D01*
X107162042Y-97307475D01*
X106920588Y-97179092D01*
X106708665Y-97006251D01*
X106534349Y-96795539D01*
X106404285Y-96554990D01*
X106323418Y-96293755D01*
X106290989Y-95985215D01*
X106289842Y-95979629D01*
X106285603Y-95937888D01*
X106264208Y-95867899D01*
X106243000Y-95828344D01*
X106243000Y-94891320D01*
X106862692Y-94891320D01*
X106877173Y-95038346D01*
X106920059Y-95179721D01*
X106989701Y-95310013D01*
X107083425Y-95424215D01*
X107197627Y-95517939D01*
X107327919Y-95587581D01*
X107469294Y-95630467D01*
X107579485Y-95641320D01*
X108453155Y-95641320D01*
X108563346Y-95630467D01*
X108704721Y-95587581D01*
X108835013Y-95517939D01*
X108949215Y-95424215D01*
X109042939Y-95310013D01*
X109112581Y-95179721D01*
X109155467Y-95038346D01*
X109169948Y-94891320D01*
X109155467Y-94744294D01*
X109112581Y-94602919D01*
X109042939Y-94472627D01*
X108949215Y-94358425D01*
X108835013Y-94264701D01*
X108704721Y-94195059D01*
X108563346Y-94152173D01*
X108453155Y-94141320D01*
X107579485Y-94141320D01*
X107469294Y-94152173D01*
X107327919Y-94195059D01*
X107197627Y-94264701D01*
X107083425Y-94358425D01*
X106989701Y-94472627D01*
X106920059Y-94602919D01*
X106877173Y-94744294D01*
X106862692Y-94891320D01*
X106243000Y-94891320D01*
X106243000Y-86251320D01*
X106862692Y-86251320D01*
X106877173Y-86398346D01*
X106920059Y-86539721D01*
X106989701Y-86670013D01*
X107083425Y-86784215D01*
X107197627Y-86877939D01*
X107327919Y-86947581D01*
X107469294Y-86990467D01*
X107579485Y-87001320D01*
X108453155Y-87001320D01*
X108563346Y-86990467D01*
X108704721Y-86947581D01*
X108835013Y-86877939D01*
X108949215Y-86784215D01*
X109042939Y-86670013D01*
X109112581Y-86539721D01*
X109155467Y-86398346D01*
X109169948Y-86251320D01*
X109155467Y-86104294D01*
X109112581Y-85962919D01*
X109042939Y-85832627D01*
X108949215Y-85718425D01*
X108835013Y-85624701D01*
X108704721Y-85555059D01*
X108563346Y-85512173D01*
X108453155Y-85501320D01*
X107579485Y-85501320D01*
X107469294Y-85512173D01*
X107327919Y-85555059D01*
X107197627Y-85624701D01*
X107083425Y-85718425D01*
X106989701Y-85832627D01*
X106920059Y-85962919D01*
X106877173Y-86104294D01*
X106862692Y-86251320D01*
X106243000Y-86251320D01*
X106243000Y-83453957D01*
X118249332Y-83453957D01*
X118330721Y-83692207D01*
X118592391Y-83810583D01*
X118872128Y-83875634D01*
X119159181Y-83884862D01*
X119442518Y-83837911D01*
X119711252Y-83736587D01*
X119794279Y-83692207D01*
X119875668Y-83453957D01*
X119062500Y-82640789D01*
X118249332Y-83453957D01*
X106243000Y-83453957D01*
X106243000Y-82608938D01*
X106246615Y-82603658D01*
X106275446Y-82536389D01*
X106290662Y-82464801D01*
X106291210Y-82459594D01*
X106321484Y-82150840D01*
X106400525Y-81889042D01*
X106528907Y-81647590D01*
X106701747Y-81435667D01*
X106912460Y-81261349D01*
X107153016Y-81131282D01*
X107414246Y-81050418D01*
X107722785Y-81017989D01*
X107728371Y-81016842D01*
X107770112Y-81012603D01*
X107840101Y-80991208D01*
X107879656Y-80970000D01*
X111054001Y-80970000D01*
X111054000Y-82915039D01*
G37*
G04 #@! TD.AperFunction*
D23*
X130968120Y-90847153D02*
X130966065Y-90868020D01*
X130968120Y-90888887D01*
X130968120Y-90888893D01*
X130971250Y-90920673D01*
X130974270Y-90951334D01*
X130978791Y-90966236D01*
X130998572Y-91031446D01*
X131038036Y-91105279D01*
X131091146Y-91169994D01*
X131107363Y-91183303D01*
X131320379Y-91396320D01*
X131059687Y-91396320D01*
X131038820Y-91394265D01*
X131017953Y-91396320D01*
X131017946Y-91396320D01*
X130958755Y-91402150D01*
X130955506Y-91402470D01*
X130875392Y-91426772D01*
X130855932Y-91437174D01*
X130801560Y-91466236D01*
X130736846Y-91519346D01*
X130723541Y-91535558D01*
X130224151Y-92034949D01*
X130068740Y-92034949D01*
X129983593Y-92043335D01*
X129901717Y-92068172D01*
X129826261Y-92108504D01*
X129760123Y-92162783D01*
X129705844Y-92228921D01*
X129665512Y-92304377D01*
X129640675Y-92386253D01*
X129632289Y-92471400D01*
X129632289Y-92741400D01*
X129640354Y-92823285D01*
X129609107Y-92838845D01*
X129514375Y-92912122D01*
X129435758Y-93002473D01*
X129376279Y-93106425D01*
X129338223Y-93219983D01*
X129325740Y-93320400D01*
X129477740Y-93472400D01*
X130099740Y-93472400D01*
X130099740Y-93452400D01*
X130407740Y-93452400D01*
X130407740Y-93472400D01*
X130427740Y-93472400D01*
X130427740Y-93780400D01*
X130407740Y-93780400D01*
X130407740Y-94352400D01*
X130559740Y-94504400D01*
X130675602Y-94498790D01*
X130791165Y-94467343D01*
X130898373Y-94413955D01*
X130993105Y-94340678D01*
X131071722Y-94250327D01*
X131131201Y-94146375D01*
X131169257Y-94032817D01*
X131181740Y-93932400D01*
X131029742Y-93780402D01*
X131181740Y-93780402D01*
X131181740Y-93639010D01*
X131194798Y-93644419D01*
X131330036Y-93671320D01*
X131467924Y-93671320D01*
X131603162Y-93644419D01*
X131668585Y-93617320D01*
X132522420Y-93617320D01*
X132522420Y-93597320D01*
X132830420Y-93597320D01*
X132830420Y-93617320D01*
X132850420Y-93617320D01*
X132850420Y-93925320D01*
X132830420Y-93925320D01*
X132830420Y-93945320D01*
X132522420Y-93945320D01*
X132522420Y-93925320D01*
X131640420Y-93925320D01*
X131488420Y-94077320D01*
X131497625Y-94192542D01*
X131532780Y-94307032D01*
X131589595Y-94412463D01*
X131665887Y-94504785D01*
X131758725Y-94580449D01*
X131864539Y-94636547D01*
X131979265Y-94670924D01*
X131989242Y-94671872D01*
X131967273Y-94744294D01*
X131952792Y-94891320D01*
X131967273Y-95038346D01*
X132010159Y-95179721D01*
X132079801Y-95310013D01*
X132173525Y-95424215D01*
X132287727Y-95517939D01*
X132418019Y-95587581D01*
X132550305Y-95627710D01*
X132549100Y-95627560D01*
X132397100Y-95779560D01*
X132397100Y-96401560D01*
X132417100Y-96401560D01*
X132417100Y-96709560D01*
X132397100Y-96709560D01*
X132397100Y-96729560D01*
X132089100Y-96729560D01*
X132089100Y-96709560D01*
X131517100Y-96709560D01*
X131365100Y-96861560D01*
X131370710Y-96977422D01*
X131402157Y-97092985D01*
X131455545Y-97200193D01*
X131528822Y-97294925D01*
X131619173Y-97373542D01*
X131723125Y-97433021D01*
X131818549Y-97465000D01*
X124404000Y-97465000D01*
X124404000Y-96249560D01*
X131365100Y-96249560D01*
X131517100Y-96401560D01*
X132089100Y-96401560D01*
X132089100Y-95779560D01*
X131937100Y-95627560D01*
X131836683Y-95640043D01*
X131723125Y-95678099D01*
X131619173Y-95737578D01*
X131528822Y-95816195D01*
X131455545Y-95910927D01*
X131402157Y-96018135D01*
X131370710Y-96133698D01*
X131365100Y-96249560D01*
X124404000Y-96249560D01*
X124404000Y-95519961D01*
X124405572Y-95504000D01*
X124399297Y-95440289D01*
X124380713Y-95379026D01*
X124350535Y-95322566D01*
X124309921Y-95273079D01*
X124260434Y-95232465D01*
X124203974Y-95202287D01*
X124142711Y-95183703D01*
X124094961Y-95179000D01*
X124094960Y-95179000D01*
X124079000Y-95177428D01*
X124063039Y-95179000D01*
X121681961Y-95179000D01*
X121666000Y-95177428D01*
X121650040Y-95179000D01*
X121650039Y-95179000D01*
X121602289Y-95183703D01*
X121541026Y-95202287D01*
X121484566Y-95232465D01*
X121435079Y-95273079D01*
X121394465Y-95322566D01*
X121364287Y-95379026D01*
X121345703Y-95440289D01*
X121339428Y-95504000D01*
X121341001Y-95519971D01*
X121341000Y-97465000D01*
X113802645Y-97465000D01*
X113851507Y-97437042D01*
X113941858Y-97358425D01*
X114015135Y-97263693D01*
X114068523Y-97156485D01*
X114099970Y-97040922D01*
X114105580Y-96925060D01*
X113953580Y-96773060D01*
X113381580Y-96773060D01*
X113381580Y-96793060D01*
X113073580Y-96793060D01*
X113073580Y-96773060D01*
X113053580Y-96773060D01*
X113053580Y-96465060D01*
X113073580Y-96465060D01*
X113073580Y-95843060D01*
X113381580Y-95843060D01*
X113381580Y-96465060D01*
X113953580Y-96465060D01*
X114105580Y-96313060D01*
X114099970Y-96197198D01*
X114068523Y-96081635D01*
X114015135Y-95974427D01*
X113941858Y-95879695D01*
X113851507Y-95801078D01*
X113747555Y-95741599D01*
X113633997Y-95703543D01*
X113533580Y-95691060D01*
X113381580Y-95843060D01*
X113073580Y-95843060D01*
X112921580Y-95691060D01*
X112821163Y-95703543D01*
X112707605Y-95741599D01*
X112707580Y-95741613D01*
X112707580Y-95641320D01*
X112773155Y-95641320D01*
X112883346Y-95630467D01*
X113024721Y-95587581D01*
X113155013Y-95517939D01*
X113269215Y-95424215D01*
X113362939Y-95310013D01*
X113432581Y-95179721D01*
X113475467Y-95038346D01*
X113489948Y-94891320D01*
X113475467Y-94744294D01*
X113453498Y-94671872D01*
X113463475Y-94670924D01*
X113578201Y-94636547D01*
X113684015Y-94580449D01*
X113776853Y-94504785D01*
X113853145Y-94412463D01*
X113909960Y-94307032D01*
X113945115Y-94192542D01*
X113954320Y-94077320D01*
X113802322Y-93925322D01*
X113840407Y-93925322D01*
X113966278Y-93977459D01*
X114101516Y-94004360D01*
X114239404Y-94004360D01*
X114374642Y-93977459D01*
X114375764Y-93976994D01*
X114382703Y-94032817D01*
X114420759Y-94146375D01*
X114480238Y-94250327D01*
X114558855Y-94340678D01*
X114653587Y-94413955D01*
X114760795Y-94467343D01*
X114876358Y-94498790D01*
X114992220Y-94504400D01*
X115144220Y-94352400D01*
X115144220Y-93780400D01*
X115452220Y-93780400D01*
X115452220Y-94352400D01*
X115604220Y-94504400D01*
X115720082Y-94498790D01*
X115835645Y-94467343D01*
X115942853Y-94413955D01*
X116037585Y-94340678D01*
X116116202Y-94250327D01*
X116175681Y-94146375D01*
X116213737Y-94032817D01*
X116226220Y-93932400D01*
X129325740Y-93932400D01*
X129338223Y-94032817D01*
X129376279Y-94146375D01*
X129435758Y-94250327D01*
X129514375Y-94340678D01*
X129609107Y-94413955D01*
X129716315Y-94467343D01*
X129831878Y-94498790D01*
X129947740Y-94504400D01*
X130099740Y-94352400D01*
X130099740Y-93780400D01*
X129477740Y-93780400D01*
X129325740Y-93932400D01*
X116226220Y-93932400D01*
X116074220Y-93780400D01*
X115452220Y-93780400D01*
X115144220Y-93780400D01*
X115124220Y-93780400D01*
X115124220Y-93472400D01*
X115144220Y-93472400D01*
X115144220Y-93452400D01*
X115452220Y-93452400D01*
X115452220Y-93472400D01*
X116074220Y-93472400D01*
X116226220Y-93320400D01*
X116213737Y-93219983D01*
X116175681Y-93106425D01*
X116116202Y-93002473D01*
X116037585Y-92912122D01*
X115942853Y-92838845D01*
X115911606Y-92823285D01*
X115919671Y-92741400D01*
X115919671Y-92471400D01*
X115911285Y-92386253D01*
X115886448Y-92304377D01*
X115846116Y-92228921D01*
X115791837Y-92162783D01*
X115725699Y-92108504D01*
X115650243Y-92068172D01*
X115568367Y-92043335D01*
X115483220Y-92034949D01*
X115328664Y-92034949D01*
X115275399Y-91991235D01*
X115201566Y-91951771D01*
X115121453Y-91927469D01*
X115059013Y-91921319D01*
X115059006Y-91921319D01*
X115038139Y-91919264D01*
X115017272Y-91921319D01*
X113647771Y-91921319D01*
X113647771Y-91746320D01*
X113940613Y-91746320D01*
X113961480Y-91748375D01*
X113982347Y-91746320D01*
X117565569Y-91746320D01*
X117565569Y-92122920D01*
X117571361Y-92181730D01*
X117588516Y-92238280D01*
X117616373Y-92290397D01*
X117653862Y-92336078D01*
X117699543Y-92373567D01*
X117751660Y-92401424D01*
X117808210Y-92418579D01*
X117867020Y-92424371D01*
X118142021Y-92424371D01*
X118142021Y-92718091D01*
X118100970Y-92759142D01*
X118035307Y-92857413D01*
X117990078Y-92966606D01*
X117967020Y-93082525D01*
X117967020Y-93200715D01*
X117990078Y-93316634D01*
X118035307Y-93425827D01*
X118100970Y-93524098D01*
X118184542Y-93607670D01*
X118282813Y-93673333D01*
X118392006Y-93718562D01*
X118507925Y-93741620D01*
X118626115Y-93741620D01*
X118742034Y-93718562D01*
X118851227Y-93673333D01*
X118949498Y-93607670D01*
X119033070Y-93524098D01*
X119098733Y-93425827D01*
X119143962Y-93316634D01*
X119167020Y-93200715D01*
X119167020Y-93082525D01*
X119143962Y-92966606D01*
X119098733Y-92857413D01*
X119033070Y-92759142D01*
X118992020Y-92718092D01*
X118992020Y-92424371D01*
X119257382Y-92424371D01*
X119278917Y-92464660D01*
X119295402Y-92484747D01*
X119315919Y-92509746D01*
X119332027Y-92529374D01*
X119348239Y-92542679D01*
X119801321Y-92995762D01*
X119814626Y-93011974D01*
X119879340Y-93065084D01*
X119953173Y-93104548D01*
X120008983Y-93121478D01*
X120033285Y-93128850D01*
X120041698Y-93129679D01*
X120095726Y-93135000D01*
X120095732Y-93135000D01*
X120116599Y-93137055D01*
X120137466Y-93135000D01*
X126598133Y-93135000D01*
X126619000Y-93137055D01*
X126639867Y-93135000D01*
X126639874Y-93135000D01*
X126702314Y-93128850D01*
X126782427Y-93104548D01*
X126856260Y-93065084D01*
X126920974Y-93011974D01*
X126934284Y-92995756D01*
X129183720Y-90746320D01*
X130968120Y-90746320D01*
X130968120Y-90847153D01*
G04 #@! TA.AperFunction,Conductor*
D24*
G36*
X130968120Y-90847153D02*
G01*
X130966065Y-90868020D01*
X130968120Y-90888887D01*
X130968120Y-90888893D01*
X130971250Y-90920673D01*
X130974270Y-90951334D01*
X130978791Y-90966236D01*
X130998572Y-91031446D01*
X131038036Y-91105279D01*
X131091146Y-91169994D01*
X131107363Y-91183303D01*
X131320379Y-91396320D01*
X131059687Y-91396320D01*
X131038820Y-91394265D01*
X131017953Y-91396320D01*
X131017946Y-91396320D01*
X130958755Y-91402150D01*
X130955506Y-91402470D01*
X130875392Y-91426772D01*
X130855932Y-91437174D01*
X130801560Y-91466236D01*
X130736846Y-91519346D01*
X130723541Y-91535558D01*
X130224151Y-92034949D01*
X130068740Y-92034949D01*
X129983593Y-92043335D01*
X129901717Y-92068172D01*
X129826261Y-92108504D01*
X129760123Y-92162783D01*
X129705844Y-92228921D01*
X129665512Y-92304377D01*
X129640675Y-92386253D01*
X129632289Y-92471400D01*
X129632289Y-92741400D01*
X129640354Y-92823285D01*
X129609107Y-92838845D01*
X129514375Y-92912122D01*
X129435758Y-93002473D01*
X129376279Y-93106425D01*
X129338223Y-93219983D01*
X129325740Y-93320400D01*
X129477740Y-93472400D01*
X130099740Y-93472400D01*
X130099740Y-93452400D01*
X130407740Y-93452400D01*
X130407740Y-93472400D01*
X130427740Y-93472400D01*
X130427740Y-93780400D01*
X130407740Y-93780400D01*
X130407740Y-94352400D01*
X130559740Y-94504400D01*
X130675602Y-94498790D01*
X130791165Y-94467343D01*
X130898373Y-94413955D01*
X130993105Y-94340678D01*
X131071722Y-94250327D01*
X131131201Y-94146375D01*
X131169257Y-94032817D01*
X131181740Y-93932400D01*
X131029742Y-93780402D01*
X131181740Y-93780402D01*
X131181740Y-93639010D01*
X131194798Y-93644419D01*
X131330036Y-93671320D01*
X131467924Y-93671320D01*
X131603162Y-93644419D01*
X131668585Y-93617320D01*
X132522420Y-93617320D01*
X132522420Y-93597320D01*
X132830420Y-93597320D01*
X132830420Y-93617320D01*
X132850420Y-93617320D01*
X132850420Y-93925320D01*
X132830420Y-93925320D01*
X132830420Y-93945320D01*
X132522420Y-93945320D01*
X132522420Y-93925320D01*
X131640420Y-93925320D01*
X131488420Y-94077320D01*
X131497625Y-94192542D01*
X131532780Y-94307032D01*
X131589595Y-94412463D01*
X131665887Y-94504785D01*
X131758725Y-94580449D01*
X131864539Y-94636547D01*
X131979265Y-94670924D01*
X131989242Y-94671872D01*
X131967273Y-94744294D01*
X131952792Y-94891320D01*
X131967273Y-95038346D01*
X132010159Y-95179721D01*
X132079801Y-95310013D01*
X132173525Y-95424215D01*
X132287727Y-95517939D01*
X132418019Y-95587581D01*
X132550305Y-95627710D01*
X132549100Y-95627560D01*
X132397100Y-95779560D01*
X132397100Y-96401560D01*
X132417100Y-96401560D01*
X132417100Y-96709560D01*
X132397100Y-96709560D01*
X132397100Y-96729560D01*
X132089100Y-96729560D01*
X132089100Y-96709560D01*
X131517100Y-96709560D01*
X131365100Y-96861560D01*
X131370710Y-96977422D01*
X131402157Y-97092985D01*
X131455545Y-97200193D01*
X131528822Y-97294925D01*
X131619173Y-97373542D01*
X131723125Y-97433021D01*
X131818549Y-97465000D01*
X124404000Y-97465000D01*
X124404000Y-96249560D01*
X131365100Y-96249560D01*
X131517100Y-96401560D01*
X132089100Y-96401560D01*
X132089100Y-95779560D01*
X131937100Y-95627560D01*
X131836683Y-95640043D01*
X131723125Y-95678099D01*
X131619173Y-95737578D01*
X131528822Y-95816195D01*
X131455545Y-95910927D01*
X131402157Y-96018135D01*
X131370710Y-96133698D01*
X131365100Y-96249560D01*
X124404000Y-96249560D01*
X124404000Y-95519961D01*
X124405572Y-95504000D01*
X124399297Y-95440289D01*
X124380713Y-95379026D01*
X124350535Y-95322566D01*
X124309921Y-95273079D01*
X124260434Y-95232465D01*
X124203974Y-95202287D01*
X124142711Y-95183703D01*
X124094961Y-95179000D01*
X124094960Y-95179000D01*
X124079000Y-95177428D01*
X124063039Y-95179000D01*
X121681961Y-95179000D01*
X121666000Y-95177428D01*
X121650040Y-95179000D01*
X121650039Y-95179000D01*
X121602289Y-95183703D01*
X121541026Y-95202287D01*
X121484566Y-95232465D01*
X121435079Y-95273079D01*
X121394465Y-95322566D01*
X121364287Y-95379026D01*
X121345703Y-95440289D01*
X121339428Y-95504000D01*
X121341001Y-95519971D01*
X121341000Y-97465000D01*
X113802645Y-97465000D01*
X113851507Y-97437042D01*
X113941858Y-97358425D01*
X114015135Y-97263693D01*
X114068523Y-97156485D01*
X114099970Y-97040922D01*
X114105580Y-96925060D01*
X113953580Y-96773060D01*
X113381580Y-96773060D01*
X113381580Y-96793060D01*
X113073580Y-96793060D01*
X113073580Y-96773060D01*
X113053580Y-96773060D01*
X113053580Y-96465060D01*
X113073580Y-96465060D01*
X113073580Y-95843060D01*
X113381580Y-95843060D01*
X113381580Y-96465060D01*
X113953580Y-96465060D01*
X114105580Y-96313060D01*
X114099970Y-96197198D01*
X114068523Y-96081635D01*
X114015135Y-95974427D01*
X113941858Y-95879695D01*
X113851507Y-95801078D01*
X113747555Y-95741599D01*
X113633997Y-95703543D01*
X113533580Y-95691060D01*
X113381580Y-95843060D01*
X113073580Y-95843060D01*
X112921580Y-95691060D01*
X112821163Y-95703543D01*
X112707605Y-95741599D01*
X112707580Y-95741613D01*
X112707580Y-95641320D01*
X112773155Y-95641320D01*
X112883346Y-95630467D01*
X113024721Y-95587581D01*
X113155013Y-95517939D01*
X113269215Y-95424215D01*
X113362939Y-95310013D01*
X113432581Y-95179721D01*
X113475467Y-95038346D01*
X113489948Y-94891320D01*
X113475467Y-94744294D01*
X113453498Y-94671872D01*
X113463475Y-94670924D01*
X113578201Y-94636547D01*
X113684015Y-94580449D01*
X113776853Y-94504785D01*
X113853145Y-94412463D01*
X113909960Y-94307032D01*
X113945115Y-94192542D01*
X113954320Y-94077320D01*
X113802322Y-93925322D01*
X113840407Y-93925322D01*
X113966278Y-93977459D01*
X114101516Y-94004360D01*
X114239404Y-94004360D01*
X114374642Y-93977459D01*
X114375764Y-93976994D01*
X114382703Y-94032817D01*
X114420759Y-94146375D01*
X114480238Y-94250327D01*
X114558855Y-94340678D01*
X114653587Y-94413955D01*
X114760795Y-94467343D01*
X114876358Y-94498790D01*
X114992220Y-94504400D01*
X115144220Y-94352400D01*
X115144220Y-93780400D01*
X115452220Y-93780400D01*
X115452220Y-94352400D01*
X115604220Y-94504400D01*
X115720082Y-94498790D01*
X115835645Y-94467343D01*
X115942853Y-94413955D01*
X116037585Y-94340678D01*
X116116202Y-94250327D01*
X116175681Y-94146375D01*
X116213737Y-94032817D01*
X116226220Y-93932400D01*
X129325740Y-93932400D01*
X129338223Y-94032817D01*
X129376279Y-94146375D01*
X129435758Y-94250327D01*
X129514375Y-94340678D01*
X129609107Y-94413955D01*
X129716315Y-94467343D01*
X129831878Y-94498790D01*
X129947740Y-94504400D01*
X130099740Y-94352400D01*
X130099740Y-93780400D01*
X129477740Y-93780400D01*
X129325740Y-93932400D01*
X116226220Y-93932400D01*
X116074220Y-93780400D01*
X115452220Y-93780400D01*
X115144220Y-93780400D01*
X115124220Y-93780400D01*
X115124220Y-93472400D01*
X115144220Y-93472400D01*
X115144220Y-93452400D01*
X115452220Y-93452400D01*
X115452220Y-93472400D01*
X116074220Y-93472400D01*
X116226220Y-93320400D01*
X116213737Y-93219983D01*
X116175681Y-93106425D01*
X116116202Y-93002473D01*
X116037585Y-92912122D01*
X115942853Y-92838845D01*
X115911606Y-92823285D01*
X115919671Y-92741400D01*
X115919671Y-92471400D01*
X115911285Y-92386253D01*
X115886448Y-92304377D01*
X115846116Y-92228921D01*
X115791837Y-92162783D01*
X115725699Y-92108504D01*
X115650243Y-92068172D01*
X115568367Y-92043335D01*
X115483220Y-92034949D01*
X115328664Y-92034949D01*
X115275399Y-91991235D01*
X115201566Y-91951771D01*
X115121453Y-91927469D01*
X115059013Y-91921319D01*
X115059006Y-91921319D01*
X115038139Y-91919264D01*
X115017272Y-91921319D01*
X113647771Y-91921319D01*
X113647771Y-91746320D01*
X113940613Y-91746320D01*
X113961480Y-91748375D01*
X113982347Y-91746320D01*
X117565569Y-91746320D01*
X117565569Y-92122920D01*
X117571361Y-92181730D01*
X117588516Y-92238280D01*
X117616373Y-92290397D01*
X117653862Y-92336078D01*
X117699543Y-92373567D01*
X117751660Y-92401424D01*
X117808210Y-92418579D01*
X117867020Y-92424371D01*
X118142021Y-92424371D01*
X118142021Y-92718091D01*
X118100970Y-92759142D01*
X118035307Y-92857413D01*
X117990078Y-92966606D01*
X117967020Y-93082525D01*
X117967020Y-93200715D01*
X117990078Y-93316634D01*
X118035307Y-93425827D01*
X118100970Y-93524098D01*
X118184542Y-93607670D01*
X118282813Y-93673333D01*
X118392006Y-93718562D01*
X118507925Y-93741620D01*
X118626115Y-93741620D01*
X118742034Y-93718562D01*
X118851227Y-93673333D01*
X118949498Y-93607670D01*
X119033070Y-93524098D01*
X119098733Y-93425827D01*
X119143962Y-93316634D01*
X119167020Y-93200715D01*
X119167020Y-93082525D01*
X119143962Y-92966606D01*
X119098733Y-92857413D01*
X119033070Y-92759142D01*
X118992020Y-92718092D01*
X118992020Y-92424371D01*
X119257382Y-92424371D01*
X119278917Y-92464660D01*
X119295402Y-92484747D01*
X119315919Y-92509746D01*
X119332027Y-92529374D01*
X119348239Y-92542679D01*
X119801321Y-92995762D01*
X119814626Y-93011974D01*
X119879340Y-93065084D01*
X119953173Y-93104548D01*
X120008983Y-93121478D01*
X120033285Y-93128850D01*
X120041698Y-93129679D01*
X120095726Y-93135000D01*
X120095732Y-93135000D01*
X120116599Y-93137055D01*
X120137466Y-93135000D01*
X126598133Y-93135000D01*
X126619000Y-93137055D01*
X126639867Y-93135000D01*
X126639874Y-93135000D01*
X126702314Y-93128850D01*
X126782427Y-93104548D01*
X126856260Y-93065084D01*
X126920974Y-93011974D01*
X126934284Y-92995756D01*
X129183720Y-90746320D01*
X130968120Y-90746320D01*
X130968120Y-90847153D01*
G37*
G04 #@! TD.AperFunction*
D23*
X131247000Y-82915039D02*
X131245428Y-82931000D01*
X131251703Y-82994711D01*
X131270287Y-83055974D01*
X131300465Y-83112434D01*
X131335218Y-83154779D01*
X131341079Y-83161921D01*
X131390566Y-83202535D01*
X131447026Y-83232713D01*
X131508289Y-83251297D01*
X131572000Y-83257572D01*
X131587960Y-83256000D01*
X133969040Y-83256000D01*
X133985000Y-83257572D01*
X134048711Y-83251297D01*
X134109974Y-83232713D01*
X134166434Y-83202535D01*
X134215921Y-83161921D01*
X134256535Y-83112434D01*
X134286713Y-83055974D01*
X134305297Y-82994711D01*
X134310000Y-82946961D01*
X134310000Y-82946960D01*
X134311572Y-82931000D01*
X134310000Y-82915039D01*
X134310000Y-80970000D01*
X137609062Y-80970000D01*
X137614342Y-80973615D01*
X137681611Y-81002446D01*
X137753199Y-81017662D01*
X137758406Y-81018210D01*
X138067160Y-81048484D01*
X138328958Y-81127525D01*
X138570410Y-81255907D01*
X138782333Y-81428747D01*
X138956651Y-81639460D01*
X139086718Y-81880016D01*
X139167582Y-82141246D01*
X139200011Y-82449785D01*
X139201158Y-82455371D01*
X139205397Y-82497112D01*
X139226792Y-82567101D01*
X139248001Y-82606657D01*
X139248000Y-95826062D01*
X139244385Y-95831342D01*
X139215554Y-95898611D01*
X139200338Y-95970199D01*
X139199790Y-95975406D01*
X139169516Y-96284161D01*
X139090475Y-96545958D01*
X138962092Y-96787412D01*
X138789251Y-96999335D01*
X138578539Y-97173651D01*
X138337990Y-97303715D01*
X138076755Y-97384582D01*
X137768215Y-97417011D01*
X137762629Y-97418158D01*
X137720888Y-97422397D01*
X137650899Y-97443792D01*
X137611344Y-97465000D01*
X132667651Y-97465000D01*
X132763075Y-97433021D01*
X132867027Y-97373542D01*
X132957378Y-97294925D01*
X133030655Y-97200193D01*
X133046215Y-97168946D01*
X133128100Y-97177011D01*
X133398100Y-97177011D01*
X133483247Y-97168625D01*
X133565123Y-97143788D01*
X133640579Y-97103456D01*
X133706717Y-97049177D01*
X133760996Y-96983039D01*
X133801328Y-96907583D01*
X133826165Y-96825707D01*
X133834551Y-96740560D01*
X133834551Y-96370560D01*
X133826165Y-96285413D01*
X133801328Y-96203537D01*
X133763100Y-96132017D01*
X133763100Y-95641320D01*
X133843255Y-95641320D01*
X133953446Y-95630467D01*
X134094821Y-95587581D01*
X134225113Y-95517939D01*
X134339315Y-95424215D01*
X134433039Y-95310013D01*
X134502681Y-95179721D01*
X134545567Y-95038346D01*
X134560048Y-94891320D01*
X136272792Y-94891320D01*
X136287273Y-95038346D01*
X136330159Y-95179721D01*
X136399801Y-95310013D01*
X136493525Y-95424215D01*
X136607727Y-95517939D01*
X136738019Y-95587581D01*
X136879394Y-95630467D01*
X136989585Y-95641320D01*
X137863255Y-95641320D01*
X137973446Y-95630467D01*
X138114821Y-95587581D01*
X138245113Y-95517939D01*
X138359315Y-95424215D01*
X138453039Y-95310013D01*
X138522681Y-95179721D01*
X138565567Y-95038346D01*
X138580048Y-94891320D01*
X138565567Y-94744294D01*
X138522681Y-94602919D01*
X138453039Y-94472627D01*
X138359315Y-94358425D01*
X138245113Y-94264701D01*
X138114821Y-94195059D01*
X137973446Y-94152173D01*
X137863255Y-94141320D01*
X136989585Y-94141320D01*
X136879394Y-94152173D01*
X136738019Y-94195059D01*
X136607727Y-94264701D01*
X136493525Y-94358425D01*
X136399801Y-94472627D01*
X136330159Y-94602919D01*
X136287273Y-94744294D01*
X136272792Y-94891320D01*
X134560048Y-94891320D01*
X134545567Y-94744294D01*
X134502681Y-94602919D01*
X134433039Y-94472627D01*
X134339315Y-94358425D01*
X134225113Y-94264701D01*
X134094821Y-94195059D01*
X133953446Y-94152173D01*
X133859182Y-94142889D01*
X133864420Y-94077320D01*
X133839642Y-94052542D01*
X133911434Y-94038262D01*
X134020627Y-93993033D01*
X134118898Y-93927370D01*
X134202470Y-93843798D01*
X134268133Y-93745527D01*
X134313362Y-93636334D01*
X134336420Y-93520415D01*
X134336420Y-93402225D01*
X134313362Y-93286306D01*
X134268133Y-93177113D01*
X134202470Y-93078842D01*
X134118898Y-92995270D01*
X134020627Y-92929607D01*
X133911434Y-92884378D01*
X133795515Y-92861320D01*
X133677325Y-92861320D01*
X133561406Y-92884378D01*
X133557871Y-92885842D01*
X133557871Y-92671320D01*
X133552079Y-92612510D01*
X133539584Y-92571320D01*
X133552079Y-92530130D01*
X133557871Y-92471320D01*
X133557871Y-92171320D01*
X133552079Y-92112510D01*
X133539584Y-92071320D01*
X133552079Y-92030130D01*
X133557871Y-91971320D01*
X133557871Y-91671320D01*
X133552079Y-91612510D01*
X133539584Y-91571320D01*
X133552079Y-91530130D01*
X133557871Y-91471320D01*
X133557871Y-91246320D01*
X133643013Y-91246320D01*
X133663880Y-91248375D01*
X133684747Y-91246320D01*
X133684754Y-91246320D01*
X133747194Y-91240170D01*
X133827307Y-91215868D01*
X133901140Y-91176404D01*
X133965854Y-91123294D01*
X133979163Y-91107077D01*
X134270763Y-90815478D01*
X134286974Y-90802174D01*
X134340084Y-90737460D01*
X134379548Y-90663627D01*
X134403684Y-90584061D01*
X134403850Y-90583515D01*
X134405016Y-90571678D01*
X134410000Y-90521074D01*
X134410000Y-90521068D01*
X134412055Y-90500201D01*
X134410000Y-90479334D01*
X134410000Y-90114667D01*
X134412055Y-90093800D01*
X134410000Y-90072933D01*
X134410000Y-90072926D01*
X134403850Y-90010486D01*
X134402502Y-90006040D01*
X134388590Y-89960180D01*
X134379548Y-89930373D01*
X134340084Y-89856540D01*
X134286974Y-89791826D01*
X134270756Y-89778516D01*
X134027804Y-89535564D01*
X134014494Y-89519346D01*
X133949780Y-89466236D01*
X133875947Y-89426772D01*
X133795834Y-89402470D01*
X133733394Y-89396320D01*
X133733387Y-89396320D01*
X133712520Y-89394265D01*
X133691653Y-89396320D01*
X133557871Y-89396320D01*
X133557871Y-89171320D01*
X133552079Y-89112510D01*
X133539584Y-89071320D01*
X133552079Y-89030130D01*
X133557871Y-88971320D01*
X133557871Y-88671320D01*
X133552079Y-88612510D01*
X133539584Y-88571320D01*
X133552079Y-88530130D01*
X133557871Y-88471320D01*
X133557871Y-88256798D01*
X133561406Y-88258262D01*
X133677325Y-88281320D01*
X133795515Y-88281320D01*
X133911434Y-88258262D01*
X134020627Y-88213033D01*
X134118898Y-88147370D01*
X134202470Y-88063798D01*
X134268133Y-87965527D01*
X134313362Y-87856334D01*
X134336420Y-87740415D01*
X134336420Y-87622225D01*
X134313362Y-87506306D01*
X134268133Y-87397113D01*
X134202470Y-87298842D01*
X134118898Y-87215270D01*
X134020627Y-87149607D01*
X133911434Y-87104378D01*
X133839642Y-87090098D01*
X133864420Y-87065320D01*
X133859182Y-86999751D01*
X133953446Y-86990467D01*
X134094821Y-86947581D01*
X134225113Y-86877939D01*
X134339315Y-86784215D01*
X134433039Y-86670013D01*
X134502681Y-86539721D01*
X134545567Y-86398346D01*
X134560048Y-86251320D01*
X136272792Y-86251320D01*
X136287273Y-86398346D01*
X136330159Y-86539721D01*
X136399801Y-86670013D01*
X136493525Y-86784215D01*
X136607727Y-86877939D01*
X136738019Y-86947581D01*
X136879394Y-86990467D01*
X136989585Y-87001320D01*
X137863255Y-87001320D01*
X137973446Y-86990467D01*
X138114821Y-86947581D01*
X138245113Y-86877939D01*
X138359315Y-86784215D01*
X138453039Y-86670013D01*
X138522681Y-86539721D01*
X138565567Y-86398346D01*
X138580048Y-86251320D01*
X138565567Y-86104294D01*
X138522681Y-85962919D01*
X138453039Y-85832627D01*
X138359315Y-85718425D01*
X138245113Y-85624701D01*
X138114821Y-85555059D01*
X137973446Y-85512173D01*
X137863255Y-85501320D01*
X136989585Y-85501320D01*
X136879394Y-85512173D01*
X136738019Y-85555059D01*
X136607727Y-85624701D01*
X136493525Y-85718425D01*
X136399801Y-85832627D01*
X136330159Y-85962919D01*
X136287273Y-86104294D01*
X136272792Y-86251320D01*
X134560048Y-86251320D01*
X134545567Y-86104294D01*
X134502681Y-85962919D01*
X134433039Y-85832627D01*
X134339315Y-85718425D01*
X134225113Y-85624701D01*
X134094821Y-85555059D01*
X133953446Y-85512173D01*
X133843255Y-85501320D01*
X132669585Y-85501320D01*
X132559394Y-85512173D01*
X132418019Y-85555059D01*
X132287727Y-85624701D01*
X132173525Y-85718425D01*
X132079801Y-85832627D01*
X132010159Y-85962919D01*
X131967273Y-86104294D01*
X131952792Y-86251320D01*
X131967273Y-86398346D01*
X131989242Y-86470768D01*
X131979265Y-86471716D01*
X131864539Y-86506093D01*
X131758725Y-86562191D01*
X131665887Y-86637855D01*
X131664926Y-86639018D01*
X131647555Y-86581753D01*
X131601126Y-86494891D01*
X131538644Y-86418756D01*
X131519561Y-86403095D01*
X130881209Y-85764744D01*
X130865544Y-85745656D01*
X130789409Y-85683174D01*
X130702547Y-85636745D01*
X130608297Y-85608155D01*
X130534840Y-85600920D01*
X130510280Y-85598501D01*
X130485720Y-85600920D01*
X126328267Y-85600920D01*
X124642500Y-83915155D01*
X124642500Y-83460644D01*
X124687229Y-83442116D01*
X124875582Y-83316263D01*
X125035763Y-83156082D01*
X125161616Y-82967729D01*
X125248306Y-82758443D01*
X125284397Y-82577002D01*
X125384649Y-82577002D01*
X125274591Y-82801911D01*
X125375565Y-83069300D01*
X125526764Y-83311852D01*
X125722378Y-83520246D01*
X125954889Y-83686473D01*
X126215361Y-83804146D01*
X126303590Y-83830903D01*
X126528500Y-83719889D01*
X126528500Y-82577000D01*
X126836500Y-82577000D01*
X126836500Y-83719889D01*
X127061410Y-83830903D01*
X127149639Y-83804146D01*
X127410111Y-83686473D01*
X127642622Y-83520246D01*
X127838236Y-83311852D01*
X127989435Y-83069300D01*
X128090409Y-82801911D01*
X127980350Y-82577000D01*
X126836500Y-82577000D01*
X126528500Y-82577000D01*
X126508500Y-82577000D01*
X126508500Y-82269000D01*
X126528500Y-82269000D01*
X126528500Y-82249000D01*
X126836500Y-82249000D01*
X126836500Y-82269000D01*
X127980350Y-82269000D01*
X128090409Y-82044089D01*
X127989435Y-81776700D01*
X127838236Y-81534148D01*
X127642622Y-81325754D01*
X127410111Y-81159527D01*
X127149639Y-81041854D01*
X127061410Y-81015097D01*
X126836502Y-81126110D01*
X126836502Y-80970000D01*
X131247001Y-80970000D01*
X131247000Y-82915039D01*
G04 #@! TA.AperFunction,Conductor*
D24*
G36*
X131247000Y-82915039D02*
G01*
X131245428Y-82931000D01*
X131251703Y-82994711D01*
X131270287Y-83055974D01*
X131300465Y-83112434D01*
X131335218Y-83154779D01*
X131341079Y-83161921D01*
X131390566Y-83202535D01*
X131447026Y-83232713D01*
X131508289Y-83251297D01*
X131572000Y-83257572D01*
X131587960Y-83256000D01*
X133969040Y-83256000D01*
X133985000Y-83257572D01*
X134048711Y-83251297D01*
X134109974Y-83232713D01*
X134166434Y-83202535D01*
X134215921Y-83161921D01*
X134256535Y-83112434D01*
X134286713Y-83055974D01*
X134305297Y-82994711D01*
X134310000Y-82946961D01*
X134310000Y-82946960D01*
X134311572Y-82931000D01*
X134310000Y-82915039D01*
X134310000Y-80970000D01*
X137609062Y-80970000D01*
X137614342Y-80973615D01*
X137681611Y-81002446D01*
X137753199Y-81017662D01*
X137758406Y-81018210D01*
X138067160Y-81048484D01*
X138328958Y-81127525D01*
X138570410Y-81255907D01*
X138782333Y-81428747D01*
X138956651Y-81639460D01*
X139086718Y-81880016D01*
X139167582Y-82141246D01*
X139200011Y-82449785D01*
X139201158Y-82455371D01*
X139205397Y-82497112D01*
X139226792Y-82567101D01*
X139248001Y-82606657D01*
X139248000Y-95826062D01*
X139244385Y-95831342D01*
X139215554Y-95898611D01*
X139200338Y-95970199D01*
X139199790Y-95975406D01*
X139169516Y-96284161D01*
X139090475Y-96545958D01*
X138962092Y-96787412D01*
X138789251Y-96999335D01*
X138578539Y-97173651D01*
X138337990Y-97303715D01*
X138076755Y-97384582D01*
X137768215Y-97417011D01*
X137762629Y-97418158D01*
X137720888Y-97422397D01*
X137650899Y-97443792D01*
X137611344Y-97465000D01*
X132667651Y-97465000D01*
X132763075Y-97433021D01*
X132867027Y-97373542D01*
X132957378Y-97294925D01*
X133030655Y-97200193D01*
X133046215Y-97168946D01*
X133128100Y-97177011D01*
X133398100Y-97177011D01*
X133483247Y-97168625D01*
X133565123Y-97143788D01*
X133640579Y-97103456D01*
X133706717Y-97049177D01*
X133760996Y-96983039D01*
X133801328Y-96907583D01*
X133826165Y-96825707D01*
X133834551Y-96740560D01*
X133834551Y-96370560D01*
X133826165Y-96285413D01*
X133801328Y-96203537D01*
X133763100Y-96132017D01*
X133763100Y-95641320D01*
X133843255Y-95641320D01*
X133953446Y-95630467D01*
X134094821Y-95587581D01*
X134225113Y-95517939D01*
X134339315Y-95424215D01*
X134433039Y-95310013D01*
X134502681Y-95179721D01*
X134545567Y-95038346D01*
X134560048Y-94891320D01*
X136272792Y-94891320D01*
X136287273Y-95038346D01*
X136330159Y-95179721D01*
X136399801Y-95310013D01*
X136493525Y-95424215D01*
X136607727Y-95517939D01*
X136738019Y-95587581D01*
X136879394Y-95630467D01*
X136989585Y-95641320D01*
X137863255Y-95641320D01*
X137973446Y-95630467D01*
X138114821Y-95587581D01*
X138245113Y-95517939D01*
X138359315Y-95424215D01*
X138453039Y-95310013D01*
X138522681Y-95179721D01*
X138565567Y-95038346D01*
X138580048Y-94891320D01*
X138565567Y-94744294D01*
X138522681Y-94602919D01*
X138453039Y-94472627D01*
X138359315Y-94358425D01*
X138245113Y-94264701D01*
X138114821Y-94195059D01*
X137973446Y-94152173D01*
X137863255Y-94141320D01*
X136989585Y-94141320D01*
X136879394Y-94152173D01*
X136738019Y-94195059D01*
X136607727Y-94264701D01*
X136493525Y-94358425D01*
X136399801Y-94472627D01*
X136330159Y-94602919D01*
X136287273Y-94744294D01*
X136272792Y-94891320D01*
X134560048Y-94891320D01*
X134545567Y-94744294D01*
X134502681Y-94602919D01*
X134433039Y-94472627D01*
X134339315Y-94358425D01*
X134225113Y-94264701D01*
X134094821Y-94195059D01*
X133953446Y-94152173D01*
X133859182Y-94142889D01*
X133864420Y-94077320D01*
X133839642Y-94052542D01*
X133911434Y-94038262D01*
X134020627Y-93993033D01*
X134118898Y-93927370D01*
X134202470Y-93843798D01*
X134268133Y-93745527D01*
X134313362Y-93636334D01*
X134336420Y-93520415D01*
X134336420Y-93402225D01*
X134313362Y-93286306D01*
X134268133Y-93177113D01*
X134202470Y-93078842D01*
X134118898Y-92995270D01*
X134020627Y-92929607D01*
X133911434Y-92884378D01*
X133795515Y-92861320D01*
X133677325Y-92861320D01*
X133561406Y-92884378D01*
X133557871Y-92885842D01*
X133557871Y-92671320D01*
X133552079Y-92612510D01*
X133539584Y-92571320D01*
X133552079Y-92530130D01*
X133557871Y-92471320D01*
X133557871Y-92171320D01*
X133552079Y-92112510D01*
X133539584Y-92071320D01*
X133552079Y-92030130D01*
X133557871Y-91971320D01*
X133557871Y-91671320D01*
X133552079Y-91612510D01*
X133539584Y-91571320D01*
X133552079Y-91530130D01*
X133557871Y-91471320D01*
X133557871Y-91246320D01*
X133643013Y-91246320D01*
X133663880Y-91248375D01*
X133684747Y-91246320D01*
X133684754Y-91246320D01*
X133747194Y-91240170D01*
X133827307Y-91215868D01*
X133901140Y-91176404D01*
X133965854Y-91123294D01*
X133979163Y-91107077D01*
X134270763Y-90815478D01*
X134286974Y-90802174D01*
X134340084Y-90737460D01*
X134379548Y-90663627D01*
X134403684Y-90584061D01*
X134403850Y-90583515D01*
X134405016Y-90571678D01*
X134410000Y-90521074D01*
X134410000Y-90521068D01*
X134412055Y-90500201D01*
X134410000Y-90479334D01*
X134410000Y-90114667D01*
X134412055Y-90093800D01*
X134410000Y-90072933D01*
X134410000Y-90072926D01*
X134403850Y-90010486D01*
X134402502Y-90006040D01*
X134388590Y-89960180D01*
X134379548Y-89930373D01*
X134340084Y-89856540D01*
X134286974Y-89791826D01*
X134270756Y-89778516D01*
X134027804Y-89535564D01*
X134014494Y-89519346D01*
X133949780Y-89466236D01*
X133875947Y-89426772D01*
X133795834Y-89402470D01*
X133733394Y-89396320D01*
X133733387Y-89396320D01*
X133712520Y-89394265D01*
X133691653Y-89396320D01*
X133557871Y-89396320D01*
X133557871Y-89171320D01*
X133552079Y-89112510D01*
X133539584Y-89071320D01*
X133552079Y-89030130D01*
X133557871Y-88971320D01*
X133557871Y-88671320D01*
X133552079Y-88612510D01*
X133539584Y-88571320D01*
X133552079Y-88530130D01*
X133557871Y-88471320D01*
X133557871Y-88256798D01*
X133561406Y-88258262D01*
X133677325Y-88281320D01*
X133795515Y-88281320D01*
X133911434Y-88258262D01*
X134020627Y-88213033D01*
X134118898Y-88147370D01*
X134202470Y-88063798D01*
X134268133Y-87965527D01*
X134313362Y-87856334D01*
X134336420Y-87740415D01*
X134336420Y-87622225D01*
X134313362Y-87506306D01*
X134268133Y-87397113D01*
X134202470Y-87298842D01*
X134118898Y-87215270D01*
X134020627Y-87149607D01*
X133911434Y-87104378D01*
X133839642Y-87090098D01*
X133864420Y-87065320D01*
X133859182Y-86999751D01*
X133953446Y-86990467D01*
X134094821Y-86947581D01*
X134225113Y-86877939D01*
X134339315Y-86784215D01*
X134433039Y-86670013D01*
X134502681Y-86539721D01*
X134545567Y-86398346D01*
X134560048Y-86251320D01*
X136272792Y-86251320D01*
X136287273Y-86398346D01*
X136330159Y-86539721D01*
X136399801Y-86670013D01*
X136493525Y-86784215D01*
X136607727Y-86877939D01*
X136738019Y-86947581D01*
X136879394Y-86990467D01*
X136989585Y-87001320D01*
X137863255Y-87001320D01*
X137973446Y-86990467D01*
X138114821Y-86947581D01*
X138245113Y-86877939D01*
X138359315Y-86784215D01*
X138453039Y-86670013D01*
X138522681Y-86539721D01*
X138565567Y-86398346D01*
X138580048Y-86251320D01*
X138565567Y-86104294D01*
X138522681Y-85962919D01*
X138453039Y-85832627D01*
X138359315Y-85718425D01*
X138245113Y-85624701D01*
X138114821Y-85555059D01*
X137973446Y-85512173D01*
X137863255Y-85501320D01*
X136989585Y-85501320D01*
X136879394Y-85512173D01*
X136738019Y-85555059D01*
X136607727Y-85624701D01*
X136493525Y-85718425D01*
X136399801Y-85832627D01*
X136330159Y-85962919D01*
X136287273Y-86104294D01*
X136272792Y-86251320D01*
X134560048Y-86251320D01*
X134545567Y-86104294D01*
X134502681Y-85962919D01*
X134433039Y-85832627D01*
X134339315Y-85718425D01*
X134225113Y-85624701D01*
X134094821Y-85555059D01*
X133953446Y-85512173D01*
X133843255Y-85501320D01*
X132669585Y-85501320D01*
X132559394Y-85512173D01*
X132418019Y-85555059D01*
X132287727Y-85624701D01*
X132173525Y-85718425D01*
X132079801Y-85832627D01*
X132010159Y-85962919D01*
X131967273Y-86104294D01*
X131952792Y-86251320D01*
X131967273Y-86398346D01*
X131989242Y-86470768D01*
X131979265Y-86471716D01*
X131864539Y-86506093D01*
X131758725Y-86562191D01*
X131665887Y-86637855D01*
X131664926Y-86639018D01*
X131647555Y-86581753D01*
X131601126Y-86494891D01*
X131538644Y-86418756D01*
X131519561Y-86403095D01*
X130881209Y-85764744D01*
X130865544Y-85745656D01*
X130789409Y-85683174D01*
X130702547Y-85636745D01*
X130608297Y-85608155D01*
X130534840Y-85600920D01*
X130510280Y-85598501D01*
X130485720Y-85600920D01*
X126328267Y-85600920D01*
X124642500Y-83915155D01*
X124642500Y-83460644D01*
X124687229Y-83442116D01*
X124875582Y-83316263D01*
X125035763Y-83156082D01*
X125161616Y-82967729D01*
X125248306Y-82758443D01*
X125284397Y-82577002D01*
X125384649Y-82577002D01*
X125274591Y-82801911D01*
X125375565Y-83069300D01*
X125526764Y-83311852D01*
X125722378Y-83520246D01*
X125954889Y-83686473D01*
X126215361Y-83804146D01*
X126303590Y-83830903D01*
X126528500Y-83719889D01*
X126528500Y-82577000D01*
X126836500Y-82577000D01*
X126836500Y-83719889D01*
X127061410Y-83830903D01*
X127149639Y-83804146D01*
X127410111Y-83686473D01*
X127642622Y-83520246D01*
X127838236Y-83311852D01*
X127989435Y-83069300D01*
X128090409Y-82801911D01*
X127980350Y-82577000D01*
X126836500Y-82577000D01*
X126528500Y-82577000D01*
X126508500Y-82577000D01*
X126508500Y-82269000D01*
X126528500Y-82269000D01*
X126528500Y-82249000D01*
X126836500Y-82249000D01*
X126836500Y-82269000D01*
X127980350Y-82269000D01*
X128090409Y-82044089D01*
X127989435Y-81776700D01*
X127838236Y-81534148D01*
X127642622Y-81325754D01*
X127410111Y-81159527D01*
X127149639Y-81041854D01*
X127061410Y-81015097D01*
X126836502Y-81126110D01*
X126836502Y-80970000D01*
X131247001Y-80970000D01*
X131247000Y-82915039D01*
G37*
G04 #@! TD.AperFunction*
D23*
X112920320Y-93617320D02*
X112940320Y-93617320D01*
X112940320Y-93925320D01*
X112920320Y-93925320D01*
X112920320Y-93945320D01*
X112612320Y-93945320D01*
X112612320Y-93925320D01*
X112592320Y-93925320D01*
X112592320Y-93617320D01*
X112612320Y-93617320D01*
X112612320Y-93597320D01*
X112920320Y-93597320D01*
X112920320Y-93617320D01*
G04 #@! TA.AperFunction,Conductor*
D24*
G36*
X112920320Y-93617320D02*
G01*
X112940320Y-93617320D01*
X112940320Y-93925320D01*
X112920320Y-93925320D01*
X112920320Y-93945320D01*
X112612320Y-93945320D01*
X112612320Y-93925320D01*
X112592320Y-93925320D01*
X112592320Y-93617320D01*
X112612320Y-93617320D01*
X112612320Y-93597320D01*
X112920320Y-93597320D01*
X112920320Y-93617320D01*
G37*
G04 #@! TD.AperFunction*
D23*
X132830420Y-87217320D02*
X132850420Y-87217320D01*
X132850420Y-87525320D01*
X132830420Y-87525320D01*
X132830420Y-87545320D01*
X132522420Y-87545320D01*
X132522420Y-87525320D01*
X132502420Y-87525320D01*
X132502420Y-87217320D01*
X132522420Y-87217320D01*
X132522420Y-87197320D01*
X132830420Y-87197320D01*
X132830420Y-87217320D01*
G04 #@! TA.AperFunction,Conductor*
D24*
G36*
X132830420Y-87217320D02*
G01*
X132850420Y-87217320D01*
X132850420Y-87525320D01*
X132830420Y-87525320D01*
X132830420Y-87545320D01*
X132522420Y-87545320D01*
X132522420Y-87525320D01*
X132502420Y-87525320D01*
X132502420Y-87217320D01*
X132522420Y-87217320D01*
X132522420Y-87197320D01*
X132830420Y-87197320D01*
X132830420Y-87217320D01*
G37*
G04 #@! TD.AperFunction*
M02*
